{"extensionsUsed" : ["KHR_materials_pbrSpecularGlossiness"], "accessors" : [{"bufferView" : 0, "byteOffset" : 0, "componentType" : 5123, "count" : 155193, "type" : "SCALAR", "max" : [29613], "min" : [0]}, {"bufferView" : 1, "byteOffset" : 0, "componentType" : 5126, "count" : 29614, "type" : "VEC3", "max" : [741.4364624023438, 1550.83349609375, 1028.897216796875], "min" : [-741.4364624023438, -1.296377182006836, -852.8837890625], "name" : "POSITION"}, {"bufferView" : 1, "byteOffset" : 12, "componentType" : 5126, "count" : 29614, "type" : "VEC3", "max" : [1.0000044107437134, 0.9999861121177673, 0.9999477863311768], "min" : [-1.0000044107437134, -0.9999862313270569, -0.9999502301216125], "name" : "TANGENT_0"}, {"bufferView" : 1, "byteOffset" : 24, "componentType" : 5126, "count" : 29614, "type" : "VEC3", "max" : [0.9999301433563232, 0.9999999403953552, 0.999984622001648], "min" : [-0.9999300837516785, -0.9999479651451111, -0.9999558925628662], "name" : "NORMAL"}, {"bufferView" : 1, "byteOffset" : 36, "componentType" : 5126, "count" : 29614, "type" : "VEC2", "max" : [0.9957708120346069, 0.9939109086990356], "min" : [0.005851405672729015, 0.0070542097091674805], "name" : "TEXCOORD_0"}], "asset" : {"generator" : "Aspose.3D 21.4", "version" : "2.0"}, "buffers" : [{"uri" : "buffer.bin", "byteLength" : 21076920}], "bufferViews" : [{"buffer" : 0, "byteOffset" : 0, "byteLength" : 310388, "target" : 34963}, {"buffer" : 0, "byteOffset" : 310392, "byteLength" : 6828492, "byteStride" : 44, "target" : 34962}, {"buffer" : 0, "byteOffset" : 7138888, "byteLength" : 4975313}, {"buffer" : 0, "byteOffset" : 12114204, "byteLength" : 5419864}, {"buffer" : 0, "byteOffset" : 17534072, "byteLength" : 3406000}, {"buffer" : 0, "byteOffset" : 20940076, "byteLength" : 136842}], "images" : [{"mimeType" : "image/png", "bufferView" : 2}, {"mimeType" : "image/png", "bufferView" : 3}, {"mimeType" : "image/png", "bufferView" : 4}, {"mimeType" : "image/png", "bufferView" : 5}], "materials" : [{"extensions" : {"KHR_materials_pbrSpecularGlossiness" : {"diffuseFactor" : [1, 1, 1, 1], "diffuseTexture" : {"index" : 1, "texCoord" : 0}, "specularFactor" : [1, 1, 1], "glossinessFactor" : 1, "specularGlossinessTexture" : {"index" : 2, "texCoord" : 0, "scale" : 1}}}, "pbrMetallicRoughness" : {"baseColorFactor" : [1, 1, 1, 1], "metallicFactor" : 1, "roughnessFactor" : 1}, "normalTexture" : {"index" : 0, "texCoord" : 0, "scale" : 1}, "emissiveFactor" : [0, 0, 0], "alphaMode" : "OPAQUE", "doubleSided" : true}], "meshes" : [{"primitives" : [{"attributes" : {"POSITION" : 1, "TANGENT_0" : 2, "NORMAL" : 3, "TEXCOORD_0" : 4}, "indices" : 0, "material" : 0, "mode" : 4}]}], "nodes" : [{"mesh" : 0, "name" : "1645859359680_0"}, {"children" : [0], "name" : "bee.110"}, {"children" : [1], "name" : "geo.109"}, {"children" : [2], "matrix" : [0.009999999776482582, 0, 0, 0, 0, 0.009999999776482582, 0, 0, 0, 0, 0.009999999776482582, 0, 0, 0, 0, 1], "name" : "RootNode.0"}], "samplers" : [{"magFilter" : 9729, "minFilter" : 9985, "wrapS" : 10497, "wrapT" : 10497}, {"magFilter" : 9729, "minFilter" : 9985, "wrapS" : 10497, "wrapT" : 10497}, {"magFilter" : 9729, "minFilter" : 9985, "wrapS" : 10497, "wrapT" : 10497}, {"magFilter" : 9729, "minFilter" : 9985, "wrapS" : 10497, "wrapT" : 10497}], "scene" : 0, "scenes" : [{"nodes" : [3]}], "textures" : [{"sampler" : 0, "source" : 0}, {"sampler" : 1, "source" : 1}, {"sampler" : 2, "source" : 2}, {"sampler" : 3, "source" : 3}]}