{"accessors" : [{"bufferView" : 0, "byteOffset" : 0, "componentType" : 5123, "count" : 12636, "type" : "SCALAR", "max" : [2398], "min" : [0]}, {"bufferView" : 1, "byteOffset" : 0, "componentType" : 5126, "count" : 2399, "type" : "VEC3", "max" : [96.17990112304688, 163.97000122070312, 53.92519760131836], "min" : [-69.29850006103516, 9.929369926452637, -61.32819747924805], "name" : "POSITION"}, {"bufferView" : 1, "byteOffset" : 12, "componentType" : 5126, "count" : 2399, "type" : "VEC3", "max" : [0.9996029734611511, 0.9995853304862976, 0.9984399080276489], "min" : [-0.9990886449813843, -1.0000041723251343, -0.999836802482605], "name" : "NORMAL"}, {"bufferView" : 1, "byteOffset" : 24, "componentType" : 5126, "count" : 2399, "type" : "VEC2", "max" : [0.9833459854125977, 0.9800369739532471], "min" : [0.026409000158309937, 0.01996302604675293], "name" : "TEXCOORD_0"}], "asset" : {"generator" : "Aspose.3D 21.4", "version" : "2.0"}, "buffers" : [{"uri" : "buffer.bin", "byteLength" : 445936}], "bufferViews" : [{"buffer" : 0, "byteOffset" : 0, "byteLength" : 25272, "target" : 34963}, {"buffer" : 0, "byteOffset" : 25276, "byteLength" : 404352, "byteStride" : 32, "target" : 34962}, {"buffer" : 0, "byteOffset" : 429632, "byteLength" : 16302}], "cameras" : [{"perspective" : {"aspectRatio" : 1.5, "yfov" : 0.6605925559997559, "zfar" : 10000, "znear" : 1}, "type" : "perspective"}], "images" : [{"mimeType" : "image/png", "bufferView" : 2}], "materials" : [{"pbrMetallicRoughness" : {"baseColorFactor" : [1, 1, 1, 1], "baseColorTexture" : {"index" : 0, "texCoord" : 0}, "metallicFactor" : 0, "roughnessFactor" : 1}, "emissiveFactor" : [0, 0, 0], "alphaMode" : "OPAQUE", "doubleSided" : false}], "meshes" : [{"primitives" : [{"attributes" : {"POSITION" : 1, "NORMAL" : 2, "TEXCOORD_0" : 3}, "indices" : 0, "material" : 0, "mode" : 4}]}], "nodes" : [{"mesh" : 0}, {"camera" : 0, "matrix" : [-0.7289686799049377, 0, -0.6845470666885376, 0, -0.42520490288734436, 0.7836934328079224, 0.4527972936630249, 0, 0.5364750623703003, 0.6211478114128113, -0.571287989616394, 0, 400.1130065917969, 463.2640075683594, -431.0780334472656, 1]}, {"children" : [0, 1], "matrix" : [0.009999999776482582, 0, 0, 0, 0, 0.009999999776482582, 0, 0, 0, 0, 0.009999999776482582, 0, 0, 0, 0, 1]}], "samplers" : [{"magFilter" : 9729, "minFilter" : 9986, "wrapS" : 10497, "wrapT" : 10497}], "scene" : 0, "scenes" : [{"nodes" : [2]}], "textures" : [{"sampler" : 0, "source" : 0}]}