<?xml version="1.0" standalone="no"?>
<!DOCTYPE svg PUBLIC "-//W3C//DTD SVG 20010904//EN"
 "http://www.w3.org/TR/2001/REC-SVG-20010904/DTD/svg10.dtd">
<svg version="1.0" xmlns="http://www.w3.org/2000/svg"
 width="512.000000pt" height="512.000000pt" viewBox="0 0 512.000000 512.000000"
 preserveAspectRatio="xMidYMid meet">
<metadata>
Created by potrace 1.11, written by Peter Selinger 2001-2013
</metadata>
<g transform="translate(0.000000,512.000000) scale(0.100000,-0.100000)"
fill="#000000" stroke="none">
<path d="M3978 4325 c-3 -3 -646 -6 -1429 -8 -1417 -2 -1424 -2 -1424 -22 0
-19 7 -20 135 -20 74 0 196 2 270 3 74 2 261 3 415 3 154 0 307 1 340 1 686 7
1720 -9 1982 -31 106 -9 170 -2 208 23 39 25 17 45 -48 45 -29 0 -65 1 -82 2
-16 1 -44 -4 -62 -11 -28 -12 -34 -12 -51 3 -15 14 -39 17 -134 17 -63 0 -117
-2 -120 -5z"/>
<path d="M520 4302 c-20 -16 -21 -26 -22 -157 l-1 -140 29 0 28 0 2 123 c0 67
4 126 9 130 4 4 51 6 106 5 96 -1 129 9 70 22 -16 3 -32 13 -35 21 -9 22 -157
20 -186 -4z"/>
<path d="M853 4293 c-62 -8 -33 -23 42 -23 70 0 95 10 59 24 -16 6 -45 6 -101
-1z"/>
<path d="M1018 4283 c-31 -8 -20 -23 16 -23 38 0 55 14 30 24 -17 6 -19 6 -46
-1z"/>
<path d="M4493 4263 c-7 -2 -13 -14 -13 -25 0 -20 1 -21 20 -3 30 27 26 42 -7
28z"/>
<path d="M3195 4181 c-61 -31 -133 -73 -161 -93 -53 -39 -154 -141 -154 -156
0 -5 18 -23 40 -41 22 -17 42 -42 45 -54 7 -24 -20 -97 -35 -97 -22 0 -62 74
-100 185 -23 65 -48 131 -56 147 -21 41 -75 62 -143 55 -61 -7 -81 -22 -137
-103 -33 -48 -37 -60 -43 -146 -8 -94 -21 -138 -44 -138 -7 0 -25 8 -40 19
l-28 18 25 17 c17 11 31 35 42 73 32 110 -11 224 -100 264 -47 21 -88 24 -118
8 -15 -8 -30 -6 -67 10 -104 44 -277 59 -326 27 -57 -38 -13 -62 150 -81 77
-9 132 -20 137 -27 9 -14 1 -88 -13 -126 -5 -13 -9 -45 -9 -72 0 -49 14 -66
43 -54 8 3 19 -2 26 -10 10 -12 6 -17 -24 -32 -34 -16 -85 -75 -85 -99 0 -5
-4 -16 -9 -24 -7 -11 -17 -7 -49 19 l-39 34 31 21 c37 24 65 96 66 167 0 41
-5 54 -36 88 -41 45 -97 65 -157 56 -57 -9 -76 -25 -109 -91 l-31 -60 -18 43
c-22 52 -63 72 -143 72 -83 0 -99 -10 -124 -75 -28 -74 -28 -88 7 -138 15 -23
35 -56 44 -74 14 -27 15 -32 2 -37 -10 -3 -17 3 -21 19 -3 14 -19 36 -35 49
-16 14 -29 30 -29 36 0 8 -6 9 -17 5 -10 -5 -41 -11 -69 -14 -28 -4 -63 -15
-78 -24 -32 -22 -79 -93 -78 -122 0 -39 33 -124 53 -139 17 -12 11 -13 -50 -8
-82 5 -120 -7 -156 -50 -22 -27 -25 -38 -25 -117 0 -75 3 -92 21 -116 18 -22
28 -26 50 -21 39 8 37 -10 -5 -35 -44 -25 -103 -143 -112 -223 -6 -46 -4 -60
11 -76 17 -19 17 -22 -22 -77 -60 -87 -82 -134 -109 -243 -29 -118 -29 -122
-7 -167 14 -30 15 -42 5 -79 -7 -25 -12 -60 -12 -80 l0 -35 -105 2 c-58 1
-110 -2 -115 -7 -7 -7 -10 -119 -9 -354 0 -19 -1 -82 -3 -140 -2 -87 0 -105
12 -105 8 0 16 7 17 15 1 8 5 36 8 63 6 45 8 47 37 47 50 0 105 -21 133 -50
l26 -27 -36 -32 c-33 -29 -41 -31 -108 -31 -44 0 -78 -5 -85 -12 -8 -8 -12
-54 -12 -140 0 -116 2 -128 19 -138 28 -14 29 -13 33 18 3 27 4 27 66 25 69
-2 82 -7 64 -25 -7 -7 -12 -16 -12 -20 0 -15 21 -8 55 17 31 24 39 26 134 23
l101 -3 -46 -57 c-24 -31 -53 -60 -64 -63 -11 -3 -63 -1 -117 6 -54 6 -105 11
-113 10 -65 -6 -65 -7 -68 22 -2 15 -9 27 -17 27 -12 0 -26 -110 -25 -190 1
-14 1 -44 1 -67 0 -34 4 -43 17 -43 15 0 18 11 20 73 1 39 7 84 13 100 l11 27
107 0 c58 0 112 -4 119 -9 18 -11 -91 -139 -125 -147 -13 -4 -45 -4 -69 0 -29
4 -43 2 -39 -4 3 -6 15 -10 25 -10 10 0 22 -4 25 -10 4 -6 -7 -10 -25 -10 -18
0 -30 -5 -28 -11 4 -12 166 -12 1493 -3 2286 15 2503 19 2533 49 4 4 7 55 7
113 0 88 -3 107 -15 107 -10 0 -16 -12 -18 -33 -6 -61 -34 -55 -166 31 l-80
52 103 3 c82 2 107 0 121 -13 9 -8 24 -15 33 -15 30 0 18 29 -22 54 -53 34
-61 51 -14 31 21 -9 44 -19 51 -22 9 -4 12 15 12 75 0 83 -11 108 -44 96 -19
-7 -46 12 -46 33 0 10 6 12 20 8 36 -11 43 6 11 26 -17 10 -31 26 -31 35 0 14
5 13 36 -5 20 -12 39 -20 41 -17 7 6 4 1192 -2 1219 -3 12 -8 315 -10 672 -3
358 -6 671 -7 696 -3 53 -21 79 -54 79 -31 0 -37 -14 -25 -53 13 -42 21 -216
10 -223 -5 -3 -5 -14 1 -24 6 -11 10 -127 10 -287 0 -147 5 -371 10 -498 9
-214 24 -864 25 -1105 l0 -105 -50 0 -50 0 -12 163 c-6 90 -17 189 -24 220
-18 87 -57 213 -75 240 -11 17 -14 36 -10 63 4 23 0 55 -9 81 -12 37 -12 44 0
58 10 11 15 38 15 77 0 52 4 65 30 98 41 51 41 101 0 140 -28 27 -32 28 -97
22 l-68 -7 3 56 c8 114 -40 174 -147 184 -95 9 -93 63 4 126 65 41 84 62 65
74 -7 4 -28 6 -46 3 -46 -8 -55 25 -20 77 14 22 26 49 26 60 0 26 -21 21 -90
-17 -25 -14 -64 -26 -88 -27 -37 -2 -45 1 -68 31 -14 19 -24 36 -23 37 2 2 23
13 46 25 23 11 49 31 57 43 35 50 7 166 -50 203 -36 23 -94 26 -164 7 -61 -16
-66 -20 -85 -59 -11 -23 -23 -42 -27 -43 -14 0 -8 49 12 100 36 91 20 170 -34
170 -20 0 -144 -60 -187 -90 -30 -22 -37 -48 -18 -67 17 -17 -8 -26 -30 -11
-17 12 -16 18 25 113 50 115 52 136 22 165 -36 34 -89 24 -213 -39z m165 31
c0 -5 -30 -30 -66 -56 -48 -35 -70 -58 -82 -87 -8 -21 -18 -39 -22 -39 -9 0
-75 69 -69 73 17 14 134 75 179 94 64 26 60 25 60 15z m-1356 -67 c54 -13 103
-28 109 -34 6 -6 -5 -6 -29 0 -22 6 -54 10 -73 9 -19 0 -37 4 -41 10 -4 6 -32
14 -63 17 -31 3 -54 10 -51 14 8 14 43 11 148 -16z m295 -50 c40 -20 46 -42
14 -48 -43 -8 -63 2 -63 34 0 33 9 35 49 14z m321 -58 c-4 -21 -10 -40 -12
-41 -1 -1 -15 -10 -31 -19 -15 -10 -41 -42 -58 -72 -17 -30 -33 -55 -36 -55
-3 0 -2 17 2 37 4 23 22 54 45 79 21 23 48 61 60 84 25 50 43 42 30 -13z m114
21 c25 -25 42 -61 69 -143 41 -125 43 -117 -49 -180 -38 -27 -58 -35 -65 -28
-8 8 7 23 48 51 85 58 88 63 65 109 -11 21 -52 67 -91 101 -67 60 -86 94 -64
115 16 17 57 5 87 -25z m571 -133 c-25 -82 -47 -151 -50 -153 -3 -3 -5 24 -5
59 0 87 30 193 66 230 16 17 30 26 32 21 1 -4 -18 -75 -43 -157z m-162 88 c4
-21 4 -48 1 -60 -8 -31 -41 -29 -56 2 -12 28 -43 33 -52 10 -6 -18 -26 -20
-26 -4 0 7 -7 17 -17 24 -25 18 -7 37 28 30 20 -5 38 -1 55 9 20 14 23 20 13
37 -10 20 -9 20 19 5 22 -11 31 -24 35 -53z m-966 41 c55 -21 55 -36 1 -28
-47 7 -71 21 -62 35 7 12 12 12 61 -7z m1422 -102 l-22 -72 -37 40 c-20 22
-52 47 -71 55 -30 14 -30 15 -6 10 15 -3 38 -8 52 -11 18 -5 25 -2 25 9 0 18
62 59 73 48 4 -4 -3 -40 -14 -79z m-1715 21 c-4 -16 -11 -35 -16 -43 -7 -11
-8 -8 -4 10 3 14 6 33 6 43 0 9 5 17 10 17 6 0 8 -11 4 -27z m477 -1 c-6 -11
-8 -34 -5 -51 9 -42 -2 -39 -23 7 -12 24 -26 38 -41 40 -19 3 -22 -1 -22 -27
0 -26 4 -31 25 -31 16 0 25 -6 25 -15 0 -9 9 -15 25 -15 14 0 25 -4 25 -10 0
-5 -17 -10 -37 -10 l-36 0 22 -24 22 -23 -21 -6 c-26 -7 -84 9 -99 27 -12 14
4 122 21 141 7 8 116 24 126 19 2 -1 -1 -11 -7 -22z m323 -9 c4 -10 1 -20 -9
-25 -8 -5 -15 -20 -15 -33 0 -21 5 -25 30 -25 18 0 33 6 36 15 4 8 10 15 15
15 10 0 12 -70 3 -94 -9 -23 -77 -63 -82 -48 -5 15 -32 16 -32 2 0 -18 -55 17
-70 45 -16 29 -17 92 -2 107 7 7 12 0 17 -21 4 -19 13 -31 23 -31 13 0 13 -2
-3 -14 -12 -9 -16 -19 -11 -32 7 -17 9 -17 19 -3 9 11 22 15 45 11 25 -3 32
-1 32 12 0 10 -9 16 -23 16 -20 0 -23 4 -19 35 4 30 1 36 -23 45 -31 12 -29
18 5 25 12 2 25 7 28 10 11 11 30 4 36 -12z m-1057 -27 c15 -13 25 -27 22 -30
-10 -10 -99 25 -99 40 0 22 46 16 77 -10z m515 -7 c-3 -20 -8 -27 -14 -21 -11
11 -2 52 11 52 4 0 6 -14 3 -31z m-325 -14 c-4 -8 -11 -15 -17 -15 -14 0 -13
27 3 33 16 6 21 1 14 -18z m1515 -31 c-12 -78 -3 -106 42 -128 l40 -19 -43
-21 -43 -21 -19 24 c-10 13 -19 36 -19 52 0 27 41 172 47 166 1 -2 -1 -25 -5
-53z m-237 -1 c2 -27 -2 -33 -28 -42 -16 -6 -31 -11 -33 -11 -1 0 0 18 3 40 5
36 3 40 -16 40 -12 0 -21 -6 -21 -15 0 -22 -17 -18 -23 4 -6 23 16 29 77 21
35 -5 39 -8 41 -37z m-1151 -3 c8 -27 6 -35 -8 -45 -12 -9 -14 -15 -6 -20 6
-4 22 3 36 16 l24 22 0 -24 c0 -31 -15 -55 -24 -40 -10 16 -59 14 -54 -1 3 -7
14 -14 26 -16 31 -5 27 -21 -5 -27 -16 -3 -47 -10 -71 -15 -86 -20 -96 -12
-67 57 24 56 43 75 67 62 28 -15 50 5 38 36 -6 16 -5 25 3 29 21 8 32 0 41
-34z m1890 26 c18 -7 43 -26 55 -42 l23 -29 -28 -3 c-16 -2 -34 -10 -41 -19
-10 -13 -17 -13 -45 -4 -29 11 -35 9 -50 -10 -13 -16 -15 -26 -8 -40 13 -23
19 -24 34 -5 9 12 17 10 50 -11 38 -24 39 -26 20 -40 -16 -12 -19 -12 -22 1
-6 28 -32 27 -43 -1 -13 -34 -26 -43 -62 -43 l-27 0 15 36 c14 34 14 36 -5 41
-24 6 -25 16 -5 47 18 27 12 50 -16 62 -18 8 -18 11 -4 32 19 27 35 29 28 4
-3 -13 6 -24 32 -37 32 -18 38 -19 63 -5 43 25 40 47 -7 55 -23 4 -41 11 -41
16 0 13 46 11 84 -5z m-2240 -9 c38 -12 67 -40 54 -53 -4 -3 -19 3 -34 15 -22
17 -41 21 -100 21 -67 0 -94 10 -61 23 22 9 101 6 141 -6z m1884 -35 c55 -50
63 -70 35 -94 -37 -31 -71 -30 -40 1 12 14 13 14 -56 -6 -16 -4 -17 -2 -8 15
6 11 8 28 5 36 -4 10 -1 16 7 16 8 0 6 5 -5 13 -15 11 -16 17 -5 40 7 15 13
27 14 27 1 0 25 -21 53 -48z m-1335 13 c32 -29 34 -35 7 -35 -11 0 -20 7 -20
16 0 8 -5 12 -11 8 -12 -7 -31 15 -23 28 8 12 17 9 47 -17z m1237 -2 c-1 -5
-7 -19 -15 -33 l-14 -25 -1 26 c0 14 3 29 7 32 9 9 23 9 23 0z m-1787 -22 c8
-8 8 -14 -1 -23 -9 -9 -13 -7 -18 5 -3 10 -17 17 -31 17 -22 0 -24 -3 -19 -26
7 -28 0 -64 -13 -64 -5 0 -11 18 -15 40 -4 25 -12 40 -21 40 -22 0 -26 -15
-14 -49 15 -43 4 -50 -16 -11 -20 39 -12 65 23 79 32 13 109 8 125 -8z m1552
-21 c3 -11 24 -35 45 -53 l39 -33 -48 -37 c-52 -40 -72 -44 -132 -26 -33 10
-37 14 -28 30 12 23 35 25 46 5 7 -13 12 -12 33 4 l25 19 -19 35 c-18 35 -19
37 -1 56 23 25 32 25 40 0z m-900 -30 l30 -20 -32 0 c-18 0 -36 6 -40 14 -4 8
-17 16 -28 19 -14 3 -11 5 10 6 17 0 44 -8 60 -19z m-625 -50 c0 -33 -17 -50
-50 -50 -33 0 -39 6 -33 31 4 14 12 19 24 16 20 -5 26 7 9 18 -7 4 -6 13 1 26
10 20 11 20 30 3 10 -9 19 -29 19 -44z m923 10 c26 0 47 -17 47 -38 0 -10 -13
-6 -47 13 -63 36 -67 40 -59 62 7 16 9 15 22 -9 9 -18 23 -28 37 -28z m1107
10 c0 -22 -4 -40 -10 -40 -11 0 -14 63 -3 73 11 12 13 8 13 -33z m-657 -23
c-6 -39 -23 -51 -23 -16 0 21 19 64 26 57 2 -2 1 -21 -3 -41z m-119 7 c9 -8
16 -19 16 -23 0 -10 -100 -24 -108 -16 -8 7 48 54 65 55 6 0 19 -7 27 -16z
m704 -2 c4 -14 -43 -34 -72 -30 -18 3 -16 6 14 25 37 24 51 25 58 5z m-1245
-3 c39 -20 55 -40 50 -60 -7 -26 -17 -24 -31 9 -11 26 -11 25 -9 -15 1 -24 -1
-43 -5 -43 -5 0 -8 6 -8 13 -1 6 -7 26 -14 42 -14 30 -14 30 -9 -12 7 -58 -2
-54 -22 8 -15 43 -15 53 -4 60 18 11 26 11 52 -2z m-593 -14 c0 -9 -9 -15 -22
-15 -22 1 -23 1 -4 15 25 19 26 19 26 0z m515 -17 c15 -38 37 -149 30 -156 -2
-3 -13 16 -24 40 -21 50 -48 79 -31 34 12 -32 4 -33 -21 -3 l-19 22 7 -34 c5
-26 2 -37 -12 -48 -32 -23 -36 -15 -29 65 7 70 6 76 -9 64 -9 -8 -17 -31 -19
-53 -3 -39 -4 -39 -25 -24 l-22 15 32 55 c32 54 32 55 80 55 45 0 49 -2 62
-32z m250 3 l40 -19 -40 -7 c-52 -9 -95 -25 -95 -36 0 -5 -4 -9 -10 -9 -17 0
-11 14 21 53 35 42 31 41 84 18z m-1205 5 c0 -7 -109 -86 -120 -86 -22 0 -7
26 32 58 22 17 51 32 64 32 13 0 24 -2 24 -4z m1954 -17 c-18 -20 -65 -49 -80
-49 -15 0 32 43 61 56 40 18 41 17 19 -7z m352 -16 c17 -17 15 -18 -35 -21
-48 -3 -54 -6 -66 -34 -11 -26 -14 -28 -17 -12 -3 15 -9 10 -27 -24 -27 -52
-38 -49 -21 5 19 56 47 91 78 96 56 8 71 7 88 -10z m-696 -23 c39 -42 60 -91
60 -143 0 -74 -15 -101 -69 -127 -38 -17 -47 -26 -44 -41 3 -11 1 -19 -5 -19
-6 0 -13 12 -16 28 -3 15 -10 53 -16 85 -15 73 -35 77 -26 5 3 -29 6 -72 6
-95 0 -30 4 -42 16 -45 14 -3 13 -6 -5 -22 -21 -19 -21 -19 -21 9 0 15 -9 68
-21 117 -12 49 -19 90 -17 91 36 20 114 36 150 31 38 -7 42 -6 30 8 -17 21
-77 32 -102 18 -20 -11 -21 -9 -14 38 8 62 -7 74 -36 27 -24 -39 -35 -45 -27
-15 6 22 2 21 -46 -13 -21 -14 -31 -17 -40 -8 -23 23 34 61 119 81 44 10 83
18 87 19 5 0 21 -12 37 -29z m-1233 2 c-33 -36 -38 -73 -23 -146 l14 -67 -25
-10 c-34 -13 -33 -13 -33 24 0 17 -5 52 -11 76 -16 73 19 141 75 141 18 0 18
-1 3 -18z m1643 -39 c12 -32 24 -74 27 -93 5 -35 4 -36 -73 -83 -72 -42 -80
-45 -91 -30 -19 25 -17 30 25 57 33 21 39 22 54 9 15 -14 18 -13 24 11 5 21 9
24 25 15 35 -18 21 11 -16 32 -35 21 -44 46 -24 66 6 6 9 17 7 24 -8 24 -87
-60 -106 -113 -15 -43 -20 -48 -40 -43 -13 3 -39 0 -57 -7 -40 -14 -55 -6 -33
19 8 10 19 25 23 33 6 12 5 13 -6 3 -7 -7 -17 -13 -21 -13 -12 0 -10 34 3 47
6 6 12 19 13 29 2 15 11 18 52 15 43 -2 55 2 104 38 30 21 63 40 72 40 11 1
23 -17 38 -56z m-1745 37 c-3 -5 -13 -10 -21 -10 -8 0 -12 5 -9 10 3 6 13 10
21 10 8 0 12 -4 9 -10z m1445 -5 c11 -13 8 -15 -14 -15 -25 0 -33 10 -19 23
10 11 19 8 33 -8z m-411 -26 c12 -17 20 -36 18 -43 -3 -8 -30 -16 -64 -19 -32
-3 -75 -11 -97 -17 -33 -10 -37 -14 -25 -25 12 -12 23 -11 73 6 32 11 66 17
75 13 14 -5 14 -7 1 -11 -54 -18 -101 -49 -129 -87 -18 -24 -55 -56 -82 -70
-55 -30 -66 -43 -51 -58 13 -13 -2 -48 -19 -48 -12 0 -125 90 -122 97 1 2 19
18 40 35 33 26 44 29 81 24 33 -4 42 -2 42 9 0 8 -12 18 -26 21 l-27 7 29 15
c47 23 62 41 69 80 6 28 9 33 14 19 6 -17 12 -14 59 22 29 23 52 46 52 51 0 6
15 10 33 10 25 0 39 -7 56 -31z m-1216 -17 l19 -32 -26 0 c-22 0 -26 -4 -26
-29 0 -34 25 -48 47 -25 8 8 18 12 22 9 10 -11 -40 -45 -66 -45 -13 0 -33 5
-44 10 -15 9 -19 7 -19 -7 -1 -15 -4 -15 -20 6 -39 46 -24 88 37 97 41 6 44 9
40 31 -6 32 13 24 36 -15z m565 13 c30 -25 82 -116 82 -142 0 -7 -7 -13 -15
-13 -9 0 -19 17 -26 45 -17 67 -32 68 -24 1 4 -33 3 -56 -2 -56 -13 0 -76 167
-68 180 10 15 21 12 53 -15z m-129 -24 c15 -18 55 -103 66 -138 13 -45 -11
-21 -50 50 -24 42 -48 73 -59 75 -17 4 -18 0 -12 -39 20 -125 20 -129 -3 -153
l-22 -23 27 5 c25 4 26 3 20 -22 -7 -30 9 -36 19 -6 8 24 17 25 55 5 30 -16
37 -38 21 -64 -8 -13 -18 -12 -67 5 -32 10 -66 26 -77 34 -10 9 -31 55 -47
102 -27 85 -27 87 -9 104 11 10 24 34 31 55 11 38 12 39 52 33 23 -4 47 -14
55 -23z m54 6 c15 -24 49 -127 42 -127 -3 0 -22 28 -44 62 -29 46 -37 66 -29
75 14 17 13 17 31 -10z m1524 -48 l-14 -64 -12 42 c-11 38 -10 44 11 65 13 13
24 23 26 23 1 -1 -4 -31 -11 -66z m-1863 -1 c4 -35 9 -80 13 -102 8 -58 -12
-36 -26 29 -7 30 -17 55 -22 55 -11 0 -11 -17 0 -58 5 -17 7 -32 5 -32 -9 0
-34 69 -34 93 0 24 34 77 50 77 4 0 11 -28 14 -62z m546 32 c32 -30 32 -31 15
-50 -27 -30 -55 -26 -55 8 0 15 -3 37 -6 50 -9 30 8 28 46 -8z m1558 -68 c-17
-48 -33 -89 -36 -92 -13 -14 8 102 26 143 37 82 44 44 10 -51z m-18 80 c0 -5
-11 -35 -24 -68 -24 -59 -39 -72 -64 -55 -26 16 40 131 75 131 7 0 13 -4 13
-8z m206 -7 c4 -10 -15 -36 -55 -75 -34 -33 -66 -60 -71 -60 -5 0 -2 16 6 35
23 55 15 64 -12 13 -13 -26 -30 -82 -38 -125 -11 -65 -15 -74 -21 -50 -11 41
3 144 28 207 21 51 25 55 62 61 72 11 95 10 101 -6z m-596 -55 c0 -16 -26 -40
-44 -40 -3 0 2 16 11 35 17 35 33 38 33 5z m293 10 c-3 -11 -9 -20 -14 -20
-10 0 -12 24 -2 33 13 13 21 7 16 -13z m435 -41 c28 -11 28 -22 -3 -75 l-25
-42 27 -9 27 -9 -37 -23 c-21 -13 -34 -28 -31 -35 5 -14 -42 -36 -77 -36 -28
0 -23 12 20 54 21 21 47 55 56 76 17 38 17 40 -4 75 -11 20 -21 38 -21 41 0 5
24 -1 68 -17z m-86 -20 c28 -28 30 -32 15 -46 -13 -13 -19 -14 -31 -3 -21 17
-20 31 2 23 15 -6 15 -5 3 10 -14 17 -38 22 -63 12 -20 -8 -11 -69 13 -91 15
-14 19 -14 19 -3 0 8 -5 20 -12 27 -13 13 -5 27 11 17 6 -3 18 -19 26 -36 15
-28 15 -30 -17 -58 -38 -34 -47 -29 -55 28 -4 32 -13 45 -37 61 -17 11 -26 20
-20 20 6 0 29 16 50 35 21 19 44 35 52 35 7 0 27 -14 44 -31z m-412 6 c0 -12
-24 -55 -32 -55 -11 0 -10 4 4 35 9 21 28 35 28 20z m-730 -54 c14 -36 -1 -71
-30 -71 -11 0 -28 -9 -38 -21 -18 -22 -71 -53 -78 -46 -2 2 16 18 41 36 25 18
45 36 45 42 0 5 -22 -7 -50 -27 -59 -42 -65 -35 -13 18 45 46 37 50 -12 7 -19
-17 -35 -26 -35 -19 0 27 109 109 146 110 6 0 17 -13 24 -29z m-1328 2 c21
-24 108 -199 108 -217 0 -9 -9 -20 -20 -26 -17 -9 -20 -6 -30 32 -19 73 -42
140 -47 135 -2 -3 3 -32 11 -65 18 -68 21 -132 6 -132 -5 0 -10 13 -10 29 0
35 -9 61 -21 61 -5 0 -6 -34 -2 -75 4 -48 2 -75 -4 -75 -6 0 -13 30 -16 68 -7
75 -31 165 -53 200 -9 14 -24 22 -42 22 -16 0 -36 6 -47 13 -16 12 -12 15 40
20 32 3 63 11 68 16 16 16 42 13 59 -6z m1188 -3 c0 -5 -7 -10 -15 -10 -8 0
-15 5 -15 10 0 6 7 10 15 10 8 0 15 -4 15 -10z m541 -12 c23 -29 23 -35 0 -43
-14 -4 -17 -12 -13 -28 5 -20 4 -20 -11 -8 -17 13 -22 56 -11 85 8 21 12 20
35 -6z m359 7 c0 -9 9 -15 22 -15 20 0 20 -1 4 -19 -10 -11 -15 -24 -12 -30
12 -19 -12 -21 -43 -4 -37 21 -37 23 -10 57 23 29 39 34 39 11z m-2005 -51
c24 -50 18 -51 -20 -1 -19 25 -35 48 -35 51 0 16 42 -23 55 -50z m630 -14 c18
0 18 -1 3 -16 -15 -16 -20 -15 -67 15 -75 48 -85 69 -16 33 33 -18 69 -32 80
-32z m1585 12 c0 -20 -5 -44 -10 -52 -7 -11 -10 2 -10 43 0 36 4 56 10 52 6
-3 10 -23 10 -43z m295 38 c3 -5 -1 -10 -10 -10 -9 0 -13 5 -10 10 3 6 8 10
10 10 2 0 7 -4 10 -10z m-2797 -45 c2 -17 12 -39 22 -50 16 -18 17 -22 4 -39
-8 -11 -14 -31 -14 -45 0 -16 3 -21 8 -14 5 8 14 7 32 -7 l25 -19 -43 -7 c-36
-6 -42 -10 -37 -25 6 -17 0 -19 -55 -19 -67 0 -86 16 -56 49 21 23 22 49 1 31
-15 -13 -55 -5 -55 11 0 5 11 15 25 21 18 8 24 17 19 27 -12 31 -8 39 41 79
58 48 79 49 83 7z m1817 5 c-3 -5 -13 -10 -21 -10 -8 0 -12 5 -9 10 3 6 13 10
21 10 8 0 12 -4 9 -10z m58 -62 c-9 -10 -19 -18 -23 -18 -12 0 -20 43 -13 69
l6 24 23 -28 c21 -27 22 -31 7 -47z m-543 55 c0 -24 -36 -103 -47 -103 -16 0
-16 22 -2 73 7 26 15 37 29 37 11 0 20 -3 20 -7z m860 -55 c0 -13 -11 -9 -56
20 -60 37 -55 50 6 15 27 -15 50 -31 50 -35z m-1800 39 c28 8 37 -34 12 -59
l-20 -20 -17 25 c-11 17 -14 34 -9 49 4 13 9 18 11 12 2 -7 12 -10 23 -7z
m460 -6 l24 -19 -46 -7 c-46 -7 -68 -2 -68 15 0 5 17 6 38 3 35 -5 36 -5 17
10 -15 12 -16 16 -5 16 8 1 26 -8 40 -18z m1716 -31 c8 0 14 -4 14 -10 0 -11
-20 -13 -44 -4 -13 5 -14 10 -4 27 11 19 13 20 16 5 2 -10 10 -18 18 -18z
m-1816 -30 c-14 -25 -23 -30 -40 -20 -11 7 -12 14 -2 35 10 22 15 24 32 15 16
-9 18 -15 10 -30z m230 32 c0 -8 -57 -32 -75 -32 -4 0 0 9 10 20 18 19 65 28
65 12z m1088 -4 c40 -9 51 -16 55 -35 4 -20 0 -23 -29 -23 -45 0 -84 16 -84
35 0 23 -19 18 -29 -7 -8 -22 -9 -22 -17 -4 -5 13 -2 23 11 32 23 17 30 17 93
2z m-533 -87 c11 -12 18 -10 48 8 40 24 81 26 117 6 14 -8 46 -14 71 -15 39 0
52 6 98 45 29 25 57 45 62 45 5 0 9 -12 9 -26 0 -42 18 -64 77 -90 l57 -25 64
26 c36 14 66 24 68 22 10 -10 -10 -37 -26 -37 -25 0 -50 -10 -50 -21 0 -5 10
-9 23 -9 21 -1 21 -1 3 -15 -10 -8 -24 -16 -30 -18 -6 -2 -8 -8 -4 -12 5 -5
20 -3 35 4 24 11 29 10 44 -10 17 -23 36 -11 25 16 -12 31 17 24 54 -13 47
-47 50 -62 13 -62 -21 0 -24 -3 -15 -12 27 -27 9 -26 -34 1 -78 50 -256 66
-340 29 -92 -40 -144 -100 -144 -168 0 -25 -3 -30 -12 -22 -8 5 -22 6 -33 1
-27 -10 -117 -11 -134 0 -9 6 -11 18 -7 35 9 38 49 44 102 15 24 -13 46 -21
49 -17 13 13 18 139 5 163 -17 32 -61 49 -111 42 -84 -11 -99 -48 -90 -222 l6
-130 90 0 90 0 21 45 21 44 5 -48 c7 -58 46 -110 109 -144 39 -21 52 -23 125
-18 94 7 244 47 286 77 35 25 44 42 63 115 14 53 13 60 -5 102 l-20 44 23 -16
c60 -44 85 -56 118 -56 47 0 74 28 65 67 -12 50 -11 57 6 61 10 2 29 -10 45
-28 34 -37 69 -34 59 6 -11 44 0 29 81 -104 14 -23 15 -23 28 -5 13 17 14 16
15 -14 0 -25 -8 -38 -40 -63 -45 -36 -49 -49 -19 -76 30 -27 39 -47 66 -144
24 -89 29 -140 14 -155 -13 -15 -20 -90 -9 -108 8 -15 4 -17 -29 -17 -48 0
-103 32 -103 60 0 45 -123 132 -210 149 -99 20 -115 -15 -60 -131 16 -34 30
-72 29 -83 0 -12 -10 2 -24 32 -37 83 -123 123 -184 87 l-30 -18 -35 40 c-33
37 -35 38 -49 20 -13 -18 -15 -18 -62 3 -69 31 -91 28 -134 -20 -35 -37 -39
-39 -64 -28 -20 9 -33 9 -56 -1 -33 -13 -96 -70 -128 -114 l-21 -30 -16 32
c-9 17 -30 38 -46 47 -34 18 -128 20 -164 4 -20 -10 -30 -8 -58 9 -18 11 -50
23 -70 26 -35 6 -38 5 -39 -16 l0 -23 -9 23 c-13 31 -32 28 -28 -5 2 -15 -2
-28 -10 -30 -7 -3 -10 1 -6 11 7 18 4 19 -20 10 -9 -3 -16 -14 -16 -23 0 -9
-13 -22 -29 -28 -23 -8 -31 -19 -37 -48 l-7 -38 -23 54 c-13 30 -23 61 -24 70
0 22 -55 95 -80 109 -26 14 -84 -3 -118 -34 -27 -24 -102 -172 -102 -201 0
-10 10 -29 21 -41 12 -13 19 -30 16 -38 -8 -21 -17 -20 -51 7 -29 23 -29 24
-16 68 18 58 16 139 -4 177 -13 24 -25 32 -66 41 -76 16 -89 14 -127 -24 -19
-19 -37 -35 -40 -35 -3 0 -3 13 0 29 5 25 3 30 -19 35 -35 9 -20 26 24 27 32
1 29 3 -23 14 l-60 12 48 2 c62 1 53 21 -11 22 -26 1 -58 5 -72 10 -17 6 -9 7
26 3 32 -4 54 -1 59 5 4 8 -21 11 -82 11 -48 0 -95 5 -103 11 -11 7 10 9 73 6
94 -4 128 7 50 17 -27 3 -75 9 -108 13 l-60 8 100 5 100 5 -82 9 c-96 10 -112
23 -22 18 43 -3 59 -1 55 7 -4 7 -43 11 -97 11 -53 0 -89 4 -89 10 0 6 31 10
74 10 l73 0 18 55 c17 55 17 57 -5 116 l-23 60 23 24 23 25 -36 0 -37 0 23 26
c12 14 45 41 73 59 56 36 77 78 50 99 -13 9 -11 15 14 44 16 17 39 32 50 32
11 0 20 7 20 16 0 10 6 14 18 10 52 -15 72 -17 72 -7 0 17 40 13 85 -9 l40
-19 -116 1 c-123 1 -139 -2 -139 -31 0 -24 15 -27 138 -23 98 3 104 5 114 27
16 35 30 20 28 -29 -3 -70 -3 -70 25 -52 13 9 38 16 55 16 16 0 30 3 30 8 0 4
24 5 54 4 50 -3 57 -1 93 31 37 34 39 35 68 20 17 -9 47 -29 68 -45 21 -17 58
-36 84 -44 57 -17 236 -18 318 -1 57 12 60 14 60 42 l0 30 -70 -1 c-38 -1
-137 -3 -218 -5 -139 -4 -149 -3 -163 16 -8 11 -13 26 -12 35 3 13 25 14 151
11 l148 -3 37 39 37 39 13 -35 c7 -20 19 -42 27 -50z m-1168 13 c10 -15 14
-16 21 -5 7 9 12 10 16 2 11 -17 -3 -31 -29 -31 -19 0 -30 10 -45 40 -11 21
-20 45 -20 52 1 13 34 -21 57 -58z m1993 56 c-19 -13 -30 -13 -30 0 0 6 10 10
23 10 18 0 19 -2 7 -10z m420 -38 c-24 -8 -76 -70 -95 -113 -18 -40 -35 -51
-35 -24 0 11 -14 5 -49 -20 -38 -27 -62 -36 -110 -41 l-61 -7 0 52 c0 28 3 51
8 51 4 0 17 3 29 6 19 5 22 1 25 -28 4 -43 21 -39 32 7 l8 37 50 -7 c55 -8 61
8 8 20 -40 9 -44 19 -14 35 20 11 32 11 55 3 27 -11 29 -10 24 8 -5 16 -1 19
22 19 16 0 44 11 63 24 l35 24 10 -21 c7 -15 6 -22 -5 -25z m-1941 31 c-15 -2
-35 -13 -45 -25 -18 -19 -18 -20 5 -39 13 -11 21 -22 18 -26 -11 -10 -57 27
-57 47 0 26 38 50 75 49 28 -2 29 -2 4 -6z m81 -22 c0 -5 -21 -17 -46 -27 -41
-16 -47 -16 -61 -1 -17 17 -19 16 77 30 14 3 26 5 28 6 1 0 2 -3 2 -8z m1175
-42 c16 -6 12 -8 -16 -8 -19 -1 -44 6 -55 14 -18 14 -16 14 16 8 19 -3 44 -10
55 -14z m258 -20 c17 -22 21 -60 9 -92 -7 -16 -10 -15 -45 8 -31 22 -36 29
-27 45 6 10 15 22 20 25 17 10 11 25 -9 25 -11 0 -23 5 -27 12 -13 21 60 -1
79 -23z m485 -10 c35 -13 28 -39 -11 -39 -26 0 -36 6 -45 25 -19 40 -17 41 56
14z m82 -33 c0 -14 -4 -28 -10 -31 -6 -4 -10 7 -10 24 0 17 5 31 10 31 6 0 10
-11 10 -24z m-1377 -13 c-13 -2 -33 -2 -45 0 -13 2 -3 4 22 4 25 0 35 -2 23
-4z m-103 -12 c0 -15 -69 -23 -136 -16 -35 4 -61 11 -58 16 7 12 194 12 194 0z
m967 -65 c-13 -32 -22 -15 -18 32 l4 47 10 -32 c5 -18 7 -39 4 -47z m-2300 43
c55 -23 83 -46 83 -66 0 -12 -10 -14 -50 -8 -47 6 -50 5 -60 -19 -15 -41 3
-76 40 -76 16 0 30 -2 30 -4 0 -3 -15 -28 -32 -57 -23 -36 -33 -65 -34 -98 -2
-59 -2 -61 -14 -61 -5 0 -10 8 -10 18 0 10 -6 27 -14 37 -10 15 -11 23 -2 37
8 14 8 23 -2 38 -17 27 -15 73 4 114 l17 34 -42 49 c-48 56 -51 66 -19 75 39
11 55 9 105 -13z m2686 1 c21 -24 43 -26 55 -3 8 14 12 10 20 -21 13 -45 3
-78 -36 -118 -36 -38 -73 -37 -107 4 -24 29 -25 32 -9 41 13 8 22 5 35 -12 23
-28 29 -27 29 7 0 33 -14 57 -28 48 -5 -3 -13 1 -16 10 -3 8 -2 12 3 9 5 -3
12 -1 16 5 3 6 -1 13 -11 17 -16 6 -15 7 2 20 23 17 26 17 47 -7z m-2854 -14
c31 -16 65 -62 56 -75 -3 -5 -26 -16 -51 -25 -44 -15 -46 -15 -51 4 -4 16 -8
18 -19 9 -11 -9 -14 -8 -14 4 0 25 -25 40 -40 22 -7 -8 -16 -15 -21 -15 -19 0
-8 33 20 61 33 33 75 38 120 15z m320 -23 c-13 -16 -25 -30 -26 -32 -2 -2 -6
-1 -9 2 -11 10 25 57 43 57 13 0 12 -5 -8 -27z m1420 -17 l23 -24 -38 -11
c-87 -24 -139 4 -82 43 33 23 71 20 97 -8z m1282 -3 c11 -29 0 -43 -34 -43
-14 0 -16 4 -8 19 6 10 8 21 5 24 -8 8 5 27 17 27 5 0 14 -12 20 -27z m-732
-48 c65 -36 91 -74 91 -135 0 -56 -26 -108 -67 -136 -71 -47 -281 -56 -361
-15 -51 26 -99 82 -107 125 -13 68 47 154 130 184 17 7 80 10 145 9 107 -2
119 -5 169 -32z m-2095 0 c-4 -8 -8 -15 -10 -15 -2 0 -4 7 -4 15 0 8 4 15 10
15 5 0 7 -7 4 -15z m2346 -5 c11 -11 20 -26 20 -33 0 -34 -50 -48 -93 -26 -27
14 -77 60 -77 71 0 4 29 8 65 8 52 0 69 -4 85 -20z m675 -5 c30 -29 31 -40 5
-82 -22 -38 -74 -67 -103 -59 -11 3 -28 1 -38 -5 -15 -7 -26 1 -64 47 -25 31
-44 58 -42 61 2 2 30 -10 62 -27 54 -28 125 -40 125 -21 0 5 -25 26 -55 46
-30 21 -53 41 -50 44 6 5 76 18 113 20 13 0 34 -10 47 -24z m-2961 6 c3 -5 -4
-11 -16 -14 -25 -7 -33 -3 -23 12 8 13 32 14 39 2z m-163 -19 c-12 -22 -60
-38 -158 -52 -78 -11 -161 -3 -113 11 14 4 45 8 70 9 25 0 77 12 115 25 89 29
99 30 86 7z m1669 -3 c-10 -18 -17 -20 -53 -14 -23 4 -46 10 -52 13 -13 8 31
20 78 21 35 1 37 0 27 -20z m1200 -50 c0 -5 -11 -9 -25 -9 -27 0 -32 9 -13 28
12 12 38 -1 38 -19z m-2690 1 c0 -5 -4 -10 -9 -10 -6 0 -13 5 -16 10 -3 6 1
10 9 10 9 0 16 -4 16 -10z m-228 -16 c-35 -15 -38 -37 -6 -43 39 -7 61 -41 26
-41 -10 0 -22 -4 -27 -9 -9 -8 -102 4 -114 15 -2 1 10 21 25 43 28 39 46 47
104 49 23 0 22 -1 -8 -14z m2848 -14 c0 -5 -9 -10 -20 -10 -11 0 -20 5 -20 10
0 6 9 10 20 10 11 0 20 -4 20 -10z m-2550 -42 c41 -68 17 -148 -45 -148 -69 0
-88 83 -34 145 38 43 54 44 79 3z m2675 -45 c4 -25 9 -51 11 -58 5 -12 -62
-35 -100 -35 -19 0 -96 72 -96 91 0 9 7 5 19 -10 l18 -24 11 32 c9 24 17 31
37 31 16 0 35 10 48 25 19 21 23 23 33 9 7 -8 15 -36 19 -61z m-1275 2 c-33
-19 -71 -19 -96 0 -17 13 -13 14 51 14 66 0 68 -1 45 -14z m1420 5 c27 -17
-16 -23 -47 -6 l-28 15 30 0 c17 1 37 -3 45 -9z m-3323 -17 c-9 -9 -19 -14
-23 -11 -10 10 6 28 24 28 15 0 15 -1 -1 -17z m206 -31 l48 -21 -15 -30 c-9
-16 -31 -39 -51 -51 -20 -13 -35 -30 -35 -41 0 -35 -19 -20 -37 30 -20 57 -50
75 -55 32 -3 -23 -5 -21 -16 17 -7 23 -17 40 -22 37 -6 -4 -10 5 -10 19 0 13
6 27 13 30 26 12 134 -1 180 -22z m76 -113 c1 -20 -9 -33 -41 -54 -24 -16 -57
-44 -75 -63 -32 -35 -32 -35 -59 -17 l-27 17 39 22 c22 12 48 36 59 53 18 28
24 31 52 26 37 -6 54 16 33 42 -6 8 -8 20 -4 26 9 16 22 -14 23 -52z m2997 32
c40 -24 64 -85 42 -107 -12 -12 -24 -4 -83 56 l-69 70 39 0 c22 0 54 -9 71
-19z m-198 -21 c-15 -23 -28 -26 -28 -7 0 17 10 27 27 27 11 0 11 -4 1 -20z
m71 -6 c12 -15 21 -36 21 -48 0 -11 20 -47 45 -78 51 -65 53 -72 25 -63 -11 4
-20 2 -20 -4 0 -6 11 -13 25 -17 31 -8 32 -22 3 -28 -67 -14 -154 -14 -180 0
-32 17 -31 14 -18 50 8 21 14 24 22 16 20 -20 27 -13 30 31 2 35 7 43 26 45
12 2 22 10 22 19 0 21 -29 53 -47 53 -16 0 -16 5 -1 30 17 26 22 25 47 -6z
m-3109 -31 c0 -3 -19 -26 -42 -52 -24 -27 -67 -89 -97 -140 -32 -54 -58 -88
-63 -83 -14 14 21 104 53 135 18 17 29 38 29 55 0 20 3 23 12 14 9 -9 16 -5
30 18 10 17 23 30 29 30 7 0 8 11 4 31 l-7 31 26 -17 c14 -10 26 -19 26 -22z
m363 10 c-7 -2 -21 -2 -30 0 -10 3 -4 5 12 5 17 0 24 -2 18 -5z m-161 -73
c-37 -33 -42 -42 -36 -67 7 -26 6 -27 -10 -14 -26 22 -15 52 32 88 59 45 67
41 14 -7z m150 23 c25 -23 23 -34 -17 -73 l-35 -34 0 28 c0 15 -5 36 -11 47
-10 19 -11 19 -37 1 -47 -33 -52 -34 -45 -16 5 15 93 62 117 63 5 1 18 -6 28
-16z m2692 1 c4 -9 5 -19 2 -21 -8 -8 -47 18 -41 28 10 15 32 11 39 -7z
m-3210 -39 c-4 -8 -8 -15 -10 -15 -2 0 -4 7 -4 15 0 8 4 15 10 15 5 0 7 -7 4
-15z m631 -36 c59 -22 75 -40 75 -87 0 -42 -49 -82 -98 -82 -79 0 -137 69
-112 130 11 27 50 58 72 60 4 0 32 -9 63 -21z m-655 -17 c0 -10 -7 -27 -15
-38 -14 -18 -15 -17 -9 11 10 47 24 62 24 27z m169 -37 c2 13 30 -36 31 -54 0
-11 -3 -11 -17 0 -15 13 -16 11 -10 -10 4 -16 3 -21 -4 -14 -6 6 -12 39 -14
74 -3 49 -2 56 4 29 5 -19 9 -30 10 -25z m2679 25 c39 -18 61 -37 27 -24 -8 4
-26 -1 -40 -10 -29 -19 -45 -14 -45 15 0 10 -7 19 -15 19 -29 0 -15 -41 28
-81 40 -38 40 -40 10 -25 -54 27 -92 94 -66 119 12 13 58 7 101 -13z m672
-130 c8 -58 18 -90 31 -100 9 -8 21 -32 24 -52 7 -34 5 -38 -14 -38 -15 0 -21
6 -21 21 0 15 -4 19 -16 15 -13 -5 -15 -2 -11 15 4 15 2 19 -9 15 -9 -4 -14 2
-14 15 0 15 -5 19 -15 15 -19 -7 -19 -3 5 44 28 54 25 64 -9 39 -20 -15 -35
-19 -48 -14 -10 4 -25 9 -33 10 -8 1 -31 11 -50 23 l-35 22 43 0 c53 0 94 20
123 61 27 39 30 34 49 -91z m-1123 73 l44 -25 -19 -32 c-23 -40 -52 -47 -52
-13 0 48 -9 57 -56 57 -48 0 -52 4 -27 32 20 23 47 18 110 -19z m-2067 12 c0
-8 -2 -15 -4 -15 -2 0 -6 7 -10 15 -3 8 -1 15 4 15 6 0 10 -7 10 -15z m58 -10
c-6 -14 -15 -25 -19 -25 -5 0 -3 11 3 25 6 14 15 25 19 25 5 0 3 -11 -3 -25z
m908 -9 c17 -13 17 -15 2 -21 -20 -8 -61 12 -53 26 9 13 28 11 51 -5z m1194
-50 c0 -49 -18 -72 -82 -110 -52 -30 -104 -40 -138 -28 -23 9 -22 9 15 16 22
4 51 14 66 22 35 17 108 101 115 131 9 36 24 17 24 -31z m-2233 -13 c-3 -10
-5 -2 -5 17 0 19 2 27 5 18 2 -10 2 -26 0 -35z m965 30 c13 -12 37 -17 76 -17
54 -1 57 -2 55 -26 -1 -14 -5 -37 -8 -52 -6 -22 -4 -27 16 -30 l24 -3 -25 -15
c-50 -29 -250 -13 -250 21 0 4 23 5 51 2 43 -5 54 -3 65 12 13 18 14 18 14 -4
0 -18 5 -22 28 -19 19 2 28 9 30 26 4 24 -22 32 -31 10 -4 -9 -6 -8 -6 2 -1 8
-21 28 -46 43 -48 31 -52 36 -33 55 16 16 18 15 40 -5z m1448 2 c35 -18 53
-50 74 -132 22 -83 20 -111 -9 -149 -40 -52 -29 -52 24 0 l50 49 35 -26 c19
-15 39 -41 45 -59 12 -39 37 -212 46 -314 l6 -72 -53 -46 c-29 -25 -57 -46
-63 -46 -22 0 -35 25 -35 68 0 59 -15 45 -29 -28 -7 -33 -14 -60 -17 -60 -3 0
-36 18 -73 39 -69 41 -92 70 -90 119 1 27 1 27 12 -5 15 -39 32 -57 24 -25 -4
18 -2 22 9 18 11 -4 13 2 8 34 -7 40 2 50 24 28 20 -20 8 54 -16 95 -30 51
-28 56 8 22 46 -44 36 -24 -28 57 -32 40 -62 80 -67 87 -15 25 53 -28 79 -62
27 -33 37 -25 11 9 -18 24 -19 40 -1 25 11 -9 16 -9 21 -1 4 7 19 10 33 7 28
-5 152 39 152 54 0 13 -14 11 -71 -11 -43 -17 -62 -19 -123 -13 -39 5 -71 13
-71 18 0 6 35 30 77 54 97 54 93 74 -5 23 -40 -20 -75 -38 -79 -40 -5 -2 -8
34 -8 81 0 46 -7 106 -15 132 -15 53 -13 62 19 75 32 13 64 12 96 -5z m-1911
-56 c-12 -17 -37 -38 -55 -45 -57 -24 -164 -16 -164 12 0 11 13 12 58 8 73 -8
145 20 164 62 10 21 14 24 16 11 2 -9 -7 -31 -19 -48z m1435 39 c10 -37 7 -75
-10 -143 l-16 -64 -64 23 c-82 30 -115 52 -108 71 9 22 21 18 29 -7 6 -21 8
-21 12 -4 3 10 0 23 -6 29 -13 13 -14 27 -2 27 5 0 12 -12 15 -26 l7 -27 30
29 c16 15 29 32 29 37 0 15 52 77 65 77 7 0 15 -10 19 -22z m744 5 c-2 -10
-11 -19 -21 -21 -16 -3 -17 -1 -5 17 16 25 31 27 26 4z m-2562 -8 c16 -12 16
-14 3 -15 -9 0 -22 7 -29 15 -16 19 0 19 26 0z m-56 -19 c0 -25 -22 -51 -33
-39 -11 10 -8 38 5 51 18 18 28 14 28 -12z m-260 -18 c0 -5 -4 -8 -10 -8 -5 0
-10 10 -10 23 0 18 2 19 10 7 5 -8 10 -18 10 -22z m66 -65 c-14 -26 -25 -42
-26 -34 0 19 -30 -6 -30 -26 0 -8 -5 -11 -10 -8 -7 5 -8 11 -1 19 5 6 13 35
17 64 7 53 24 62 25 14 0 -24 2 -23 22 17 17 34 23 39 25 23 2 -11 -8 -42 -22
-69z m1784 62 c35 -18 44 -31 64 -89 16 -50 12 -65 -20 -66 -6 0 -18 -8 -25
-17 -12 -15 -12 -16 3 -10 26 9 96 -78 81 -101 -16 -27 -90 -75 -102 -68 -17
11 -14 199 4 243 20 48 19 50 -10 23 -25 -23 -25 -25 -25 -202 0 -172 -1 -178
-20 -178 -22 0 -39 28 -24 39 5 3 10 58 11 120 2 63 5 122 8 131 3 9 -9 38
-27 65 -28 43 -33 47 -36 28 -2 -15 -10 -23 -23 -23 -18 0 -20 5 -14 48 4 26
8 52 10 59 8 25 95 24 145 -2z m-1463 -5 c2 -8 -12 -24 -30 -35 -21 -14 -49
-52 -86 -119 l-54 -99 27 -55 c29 -59 25 -72 -21 -72 -31 0 -38 17 -12 30 15
9 18 15 10 23 -8 8 -20 2 -46 -23 l-35 -34 -24 24 c-26 27 -48 130 -27 130 6
0 12 -10 12 -22 1 -13 5 -5 9 17 l7 40 2 -40 c1 -22 6 -47 11 -55 7 -10 8 1 4
39 -5 34 -3 52 3 48 6 -4 8 16 7 51 -2 44 -1 50 5 27 6 -20 9 -23 10 -10 1 14
4 16 13 7 10 -10 1 -81 -27 -192 -6 -24 -6 -24 9 -6 9 11 16 26 16 33 0 24 92
268 107 285 24 27 106 33 110 8z m2856 13 c-13 -2 -35 -2 -50 0 -16 2 -5 4 22
4 28 0 40 -2 28 -4z m-1738 -65 c39 -11 82 -1 98 22 7 10 18 16 24 12 12 -8 2
-44 -12 -43 -6 1 -24 -4 -41 -9 -30 -10 -31 -12 -21 -40 14 -36 24 -38 30 -7
3 16 5 13 6 -10 1 -28 -2 -33 -21 -33 -32 0 -52 15 -45 34 9 22 -19 46 -54 46
-24 0 -29 4 -29 26 0 14 5 35 12 47 12 22 12 21 18 -7 4 -22 12 -32 35 -38z
m40 52 c31 -12 24 -30 -10 -30 -26 0 -40 14 -30 30 8 12 8 12 40 0z m929 -16
c8 -21 3 -26 -17 -18 -9 3 -13 12 -10 20 7 19 19 18 27 -2z m417 10 l37 -6
-27 -44 c-14 -24 -32 -44 -39 -44 -17 0 -27 29 -14 42 8 8 6 18 -5 34 -17 27
-14 28 48 18z m114 -35 c19 -17 35 -41 35 -53 0 -11 4 -27 9 -35 7 -11 10 -9
15 7 4 11 6 24 5 28 -5 28 1 34 21 22 15 -9 20 -22 18 -43 -2 -21 2 -30 15
-33 13 -3 16 2 15 19 -2 17 3 24 21 29 37 9 38 30 2 30 -38 0 -48 15 -20 31
42 22 132 -5 177 -53 l23 -25 -60 -36 c-55 -34 -65 -37 -138 -37 -77 0 -79 1
-127 40 -56 47 -82 53 -41 10 16 -16 26 -32 23 -35 -2 -3 -28 3 -56 13 l-52
17 32 68 c17 37 35 67 39 67 5 0 24 -14 44 -31z m-2295 -8 c-6 -12 -20 -21
-33 -21 -21 1 -21 2 7 26 32 28 43 26 26 -5z m240 -30 l0 -58 -49 -7 c-81 -11
-105 10 -50 43 17 11 39 33 50 50 31 51 49 41 49 -28z m-982 -66 c4 -22 14
-49 20 -61 6 -11 8 -30 5 -42 -4 -17 -1 -22 15 -22 38 0 52 -12 63 -52 5 -22
9 -42 7 -43 -2 -2 -27 15 -56 37 -40 31 -56 38 -64 30 -7 -7 -20 -12 -30 -12
-30 0 -21 -19 40 -78 66 -65 219 -163 304 -194 32 -11 58 -26 58 -32 0 -6 -12
-84 -26 -173 -17 -105 -31 -163 -39 -163 -7 0 -20 9 -30 20 -16 18 -17 28 -6
108 6 49 11 111 11 139 0 46 -3 54 -40 87 -30 27 -49 36 -74 36 -26 0 -40 7
-56 28 -12 15 -38 37 -58 49 -80 49 -97 23 -89 -129 5 -88 3 -108 -8 -108 -8
0 -16 3 -18 8 -8 12 -9 394 -2 430 4 17 11 32 15 32 12 0 30 -26 23 -33 -3 -4
-1 -7 6 -7 22 0 24 31 2 60 -29 40 -26 59 5 29 l25 -24 -10 28 c-6 16 -11 44
-11 63 0 24 -5 34 -15 34 -18 0 -19 11 -2 47 l12 27 7 -39 c4 -22 11 -58 16
-80z m231 43 c0 -10 -3 -18 -9 -18 -5 0 -9 21 -9 48 1 42 2 44 9 17 4 -16 8
-38 9 -47z m240 38 c40 -42 74 -51 146 -37 56 11 66 11 89 -4 l26 -17 -25 -30
c-29 -35 -55 -116 -55 -174 0 -24 -4 -45 -9 -48 -15 -9 -24 89 -16 173 5 56 4
73 -4 65 -15 -14 -31 -314 -17 -332 7 -10 12 -7 20 13 10 24 12 25 31 10 20
-15 19 -16 -24 -55 -48 -44 -69 -48 -112 -23 -33 20 -35 26 -14 43 12 10 21
10 41 1 30 -13 34 -14 34 -1 0 5 -13 16 -29 24 -28 15 -30 14 -81 -26 l-52
-41 -34 35 c-35 34 -35 34 -15 52 20 18 21 18 30 -8 6 -14 14 -26 19 -26 9 0
50 101 70 170 20 67 23 115 11 145 -12 28 -13 25 -24 -63 -10 -87 -13 -95 -48
-130 -33 -33 -37 -34 -37 -15 0 12 5 34 11 50 15 39 30 149 23 168 -6 14 -10
13 -30 -6 -28 -26 -54 -105 -54 -161 0 -45 -10 -48 -33 -9 -26 44 -21 87 19
168 54 109 98 137 143 89z m2049 -54 c2 -43 0 -52 -13 -52 -12 0 -15 6 -10 20
4 11 2 20 -4 20 -12 0 -15 52 -4 64 16 16 28 -4 31 -52z m-1903 38 c-28 -12
-75 -12 -75 0 0 6 21 10 48 9 35 0 42 -3 27 -9z m2213 -26 c20 -8 46 -26 57
-40 14 -17 42 -31 85 -43 35 -10 65 -22 67 -28 2 -6 -30 -17 -71 -25 l-75 -15
-10 28 c-5 16 -28 39 -53 55 -41 25 -77 61 -78 77 0 12 38 8 78 -9z m-1442
-60 c-5 -13 -46 -21 -46 -8 0 3 10 20 23 37 21 31 22 31 25 9 2 -13 1 -30 -2
-38z m143 4 c-17 -31 -23 -9 -8 28 9 22 13 25 16 12 2 -9 -1 -27 -8 -40z m661
28 c0 -13 -8 -30 -17 -37 -15 -12 -16 -12 -10 4 4 10 7 27 7 38 0 10 5 19 10
19 6 0 10 -11 10 -24z m176 -24 c-12 -11 -18 7 -10 30 l8 23 4 -23 c2 -13 1
-26 -2 -30z m-2256 3 c0 -35 -12 -46 -26 -23 -4 6 -3 13 3 15 6 2 9 13 6 23
-3 11 0 20 6 20 6 0 11 -16 11 -35z m1580 14 c0 -6 -4 -7 -10 -4 -5 3 -10 11
-10 16 0 6 5 7 10 4 6 -3 10 -11 10 -16z m58 9 c14 -14 16 -48 4 -48 -20 0
-45 28 -39 44 8 19 19 20 35 4z m-957 -39 c27 -29 34 -31 74 -26 l45 5 -37
-47 c-20 -25 -38 -48 -40 -51 -2 -2 -8 2 -12 9 -6 10 -12 3 -21 -23 -14 -43
-30 -47 -31 -8 0 24 -1 25 -9 7 -5 -11 -11 -33 -15 -49 -5 -23 -8 -27 -16 -15
-12 19 -12 121 1 153 6 17 6 27 -1 32 -6 4 -4 13 7 25 22 24 21 25 55 -12z
m63 15 c9 -3 16 -10 16 -15 0 -15 -37 -10 -50 6 -10 12 -10 15 3 15 8 0 22 -3
31 -6z m2596 -31 c29 -36 31 -41 25 -98 -9 -79 -22 -140 -42 -193 -14 -38 -19
-43 -41 -37 -16 4 -31 0 -42 -10 -17 -16 -18 -16 -14 3 5 15 -1 20 -26 26 -81
16 -109 3 -111 -49 -1 -16 -3 -22 -6 -12 -7 25 -19 21 -33 -12 -15 -38 -6 -54
29 -46 23 5 31 1 45 -20 l16 -25 -32 0 c-38 0 -107 29 -127 53 -15 19 -31 22
-31 8 0 -5 57 -59 126 -120 120 -105 127 -110 147 -96 46 32 48 13 7 -73 -35
-73 -64 -91 -111 -67 -37 20 -38 36 0 29 20 -4 30 -1 34 10 9 22 -83 165 -105
166 -10 0 -18 -5 -18 -12 0 -6 -3 -8 -7 -4 -5 4 -8 19 -8 33 0 36 -23 41 -31
6 -4 -15 -17 -50 -30 -78 -12 -27 -24 -68 -25 -90 -3 -37 -2 -40 21 -37 43 4
50 10 50 42 0 16 5 30 10 30 6 0 9 -20 8 -46 l-3 -46 -72 4 c-76 4 -118 23
-75 34 12 4 22 11 22 17 0 6 -22 8 -62 3 l-61 -6 40 29 c49 36 60 51 43 61
-11 7 -10 13 3 34 12 17 15 35 11 52 -4 17 -3 25 3 21 6 -4 15 22 22 66 11 61
10 79 -3 114 -14 39 -13 44 2 62 9 11 53 34 97 51 91 36 130 36 231 1 72 -26
86 -26 55 -1 -13 11 -54 30 -92 41 -67 20 -85 21 -169 2 -22 -5 -23 -4 -10 10
8 9 55 27 104 41 48 14 94 30 101 36 8 7 11 26 7 55 -4 43 -3 45 29 60 51 22
65 19 99 -22z m-3398 10 c10 -9 18 -29 18 -47 l-1 -31 -24 28 c-23 26 -34 67
-18 67 3 0 15 -7 25 -17z m968 -11 c21 -17 22 -20 7 -48 l-15 -29 -11 27 c-15
40 -32 45 -20 6 13 -48 11 -95 -7 -130 -9 -16 -18 -54 -21 -84 -7 -69 -21 -70
-19 -1 1 41 -4 59 -21 81 -13 16 -23 36 -23 45 0 19 86 151 99 151 5 0 19 -8
31 -18z m230 8 c-8 -5 -28 -10 -45 -10 -16 0 -37 5 -45 10 -11 7 3 10 45 10
42 0 56 -3 45 -10z m-85 -26 c33 -14 41 -14 86 1 56 19 76 15 88 -17 8 -19 2
-30 -34 -68 -49 -51 -65 -98 -69 -201 -1 -38 -4 -70 -7 -73 -12 -11 -112 -66
-115 -63 -2 2 0 17 5 34 5 17 12 75 15 129 8 121 -7 108 -24 -20 -6 -50 -13
-93 -16 -97 -2 -4 -19 -3 -36 3 -31 11 -31 12 -10 21 23 10 28 22 13 31 -4 3
-19 -6 -32 -20 -22 -23 -69 -54 -84 -54 -10 0 22 54 50 84 15 16 24 35 21 43
-4 10 -2 13 8 10 12 -5 13 -1 6 19 -14 35 -13 39 7 23 15 -12 16 -12 10 4 -4
11 -2 17 8 17 11 0 12 5 5 26 -15 39 -12 49 10 29 19 -17 20 -17 20 -1 0 10 7
33 16 52 9 19 14 49 12 69 -5 40 -4 40 47 19z m275 -4 c24 -12 59 -20 89 -20
61 0 72 -14 30 -36 -28 -14 -40 -15 -88 -4 -71 16 -91 26 -91 49 0 16 8 31 17
31 2 0 21 -9 43 -20z m114 0 c-10 -4 -21 -6 -24 -3 -8 7 24 22 34 16 5 -4 1
-10 -10 -13z m212 7 c1 -1 -1 -30 -4 -64 l-4 -63 -49 0 c-26 0 -71 5 -99 11
l-52 11 28 29 28 29 13 -22 c11 -22 12 -22 13 -3 1 18 1 19 11 3 14 -25 31
-22 59 7 l23 24 -37 22 c-20 11 -36 23 -36 26 0 5 102 -5 106 -10z m749 2 c4
-6 5 -12 2 -15 -7 -7 -37 7 -37 17 0 13 27 11 35 -2z m768 -60 c-4 -4 -20 -11
-35 -14 -25 -6 -28 -5 -28 19 0 20 8 29 33 39 31 13 32 13 35 -11 2 -13 0 -28
-5 -33z m-905 44 c-10 -2 -28 -2 -40 0 -13 2 -5 4 17 4 22 1 32 -1 23 -4z
m-28 -17 c30 0 71 4 91 8 l37 8 15 -48 c18 -57 47 -197 47 -228 0 -17 -13 -28
-55 -49 -31 -15 -60 -27 -65 -27 -6 0 -10 20 -10 45 0 47 11 57 30 28 9 -14
10 -11 4 15 -6 32 -5 33 16 22 21 -11 21 -11 4 15 -13 19 -18 48 -18 106 -1
43 -5 78 -10 76 -5 -2 -18 -27 -29 -56 -17 -43 -18 -57 -9 -72 8 -12 8 -19 2
-19 -6 0 -10 -53 -10 -143 0 -113 -3 -147 -16 -165 -18 -26 -53 -28 -95 -6
-25 12 -28 18 -18 30 16 19 33 18 54 -6 33 -37 36 -9 2 31 l-33 40 20 130 c16
100 17 132 8 141 -9 9 -12 2 -12 -32 -1 -59 -13 -37 -34 62 -10 43 -21 80 -27
83 -23 15 -8 27 24 19 17 -4 57 -8 87 -8z m830 -7 c-7 -11 -14 -18 -17 -15 -8
8 5 36 17 36 7 0 7 -6 0 -21z m-1130 -9 c8 -5 12 -12 9 -15 -8 -8 -39 5 -39
16 0 11 11 11 30 -1z m115 -43 c39 -84 58 -262 34 -324 -18 -49 -49 -73 -91
-73 -21 0 -38 4 -38 9 0 4 24 45 54 90 50 75 76 135 63 148 -3 3 -17 -17 -31
-44 -62 -119 -61 -120 -61 66 0 100 4 169 10 173 22 17 37 6 60 -45z m1389 36
c2 -10 7 -74 11 -143 6 -124 6 -125 -23 -180 -31 -59 -86 -106 -137 -116 -25
-4 -42 2 -93 36 -34 23 -62 48 -62 55 0 7 -6 15 -12 18 -9 3 -7 7 6 12 10 5
57 1 103 -7 120 -21 117 -24 139 180 17 157 18 162 40 162 13 0 25 -7 28 -17z
m-3669 -13 c3 -5 2 -10 -4 -10 -5 0 -13 5 -16 10 -3 6 -2 10 4 10 5 0 13 -4
16 -10z m-131 -16 c9 -8 16 -23 16 -32 0 -13 -5 -11 -20 8 -29 37 -26 55 4 24z
m1121 -3 c-3 -6 -11 -11 -17 -11 -6 0 -6 6 2 15 14 17 26 13 15 -4z m-1142
-20 c16 -27 16 -29 -2 -45 -23 -21 -31 -12 -31 36 0 45 10 48 33 9z m957 14
c0 -8 -4 -15 -10 -15 -5 0 -10 7 -10 15 0 8 5 15 10 15 6 0 10 -7 10 -15z
m717 -7 c6 16 123 17 123 0 0 -6 -14 -47 -32 -90 -36 -87 -33 -124 10 -143 20
-8 23 -15 18 -42 -5 -33 -32 -79 -51 -86 -6 -3 -31 5 -55 17 -44 20 -45 22
-42 64 3 36 1 42 -17 42 -29 0 -35 17 -17 45 21 31 20 54 -1 78 -18 19 -17 20
10 13 25 -6 27 -4 27 22 0 16 -9 37 -20 47 -11 10 -17 22 -14 27 4 6 17 -3 31
-18 18 -21 21 -23 14 -7 -15 29 -14 53 0 33 8 -11 12 -12 16 -2z m-1552 -21
c8 -13 18 -39 21 -58 5 -28 4 -32 -7 -22 -17 17 -50 103 -38 103 5 0 15 -10
24 -23z m2172 -129 l6 -136 -47 -57 c-25 -31 -46 -61 -46 -65 0 -5 12 -18 28
-30 l27 -21 -185 4 c-185 5 -440 32 -440 48 0 16 42 31 70 25 20 -3 36 1 54
15 24 18 27 19 55 4 17 -8 38 -15 48 -15 10 0 46 -13 80 -29 59 -28 67 -29
145 -23 l83 7 30 56 c17 32 38 66 48 76 9 11 14 23 10 26 -18 18 -36 1 -66
-60 l-33 -68 -78 -9 c-67 -7 -80 -6 -94 8 -16 16 -16 18 3 32 17 13 20 13 23
1 2 -12 9 -12 38 -2 20 7 40 18 44 26 7 11 10 10 16 -4 7 -19 24 -23 24 -5 0
6 7 19 15 28 10 11 16 53 21 137 7 121 7 122 35 133 15 7 35 21 45 31 10 11
21 16 26 11 5 -5 11 -70 15 -144z m892 105 c1 -7 -3 -13 -9 -13 -5 0 -10 15
-9 33 0 27 2 29 9 12 5 -11 9 -26 9 -32z m62 -24 l-9 -54 -1 51 c0 28 2 54 6
57 12 13 13 0 4 -54z m60 10 l-9 -44 -1 41 c-1 22 2 44 6 47 12 12 13 1 4 -44z
m-2201 32 c0 -5 -17 -21 -37 -37 l-37 -28 29 37 c29 36 45 46 45 28z m16 -59
c-15 -15 -16 -14 -16 9 0 14 6 31 13 38 10 10 13 8 15 -10 2 -12 -3 -29 -12
-37z m2089 -60 c-4 -16 -10 -21 -16 -15 -6 6 -6 19 1 37 5 15 11 44 12 64 1
30 2 28 5 -12 3 -27 1 -61 -2 -74z m-3129 66 c12 -22 12 -29 3 -26 -7 2 -19
19 -26 37 -17 40 1 32 23 -11z m877 22 c6 -24 -8 -36 -17 -14 -8 22 -7 34 3
34 5 0 11 -9 14 -20z m947 0 c0 -14 -33 -50 -45 -50 -6 0 -12 -11 -13 -25 -4
-53 63 -12 75 45 5 29 8 30 60 30 51 0 54 -1 42 -17 -8 -10 -18 -21 -23 -25
-5 -3 -21 -30 -36 -60 -28 -58 -82 -95 -120 -83 -29 9 -15 25 23 25 24 0 28 3
17 10 -8 5 -34 10 -58 10 -41 0 -42 1 -31 23 22 42 94 134 102 130 4 -2 7 -8
7 -13z m-1600 0 c0 -5 7 -10 15 -10 17 0 20 -16 5 -25 -6 -3 -13 1 -16 9 -3 9
-12 16 -20 16 -8 0 -14 5 -14 10 0 6 7 10 15 10 8 0 15 -4 15 -10z m1259 -17
c10 -19 9 -22 -9 -20 -19 1 -27 26 -13 40 7 8 7 9 22 -20z m-1515 -34 c-3 -5
-19 -9 -36 -9 l-31 0 24 23 c21 20 26 22 36 9 7 -8 10 -19 7 -23z m336 5 c21
-21 22 -27 10 -34 -22 -14 -33 -12 -26 5 3 10 1 15 -7 13 -13 -3 -17 3 -17 27
0 22 13 18 40 -11z m798 -20 c2 -27 1 -28 -12 -11 -14 18 -15 17 -18 -5 -3
-20 -8 -23 -43 -22 -45 2 -71 7 -81 16 -6 7 88 38 113 38 7 0 13 5 13 11 0 24
25 0 28 -27z m-1030 -45 c5 -41 -21 -59 -86 -59 -87 0 -102 7 -102 44 0 18 3
36 7 40 4 4 46 5 93 4 83 -3 85 -3 88 -29z m272 6 c-7 -8 -17 -12 -23 -8 -6 4
-3 11 8 19 23 17 32 10 15 -11z m1634 0 c3 -9 18 -15 36 -15 16 0 30 -2 30 -5
0 -14 -43 -131 -51 -139 -12 -13 -12 4 0 24 23 35 -5 27 -62 -18 -84 -66 -81
-65 -129 -51 -54 16 -68 26 -68 51 0 17 2 18 15 5 16 -17 99 -32 116 -21 10 6
65 117 82 167 8 21 23 22 31 2z m-1589 -14 c-3 -6 -11 -11 -17 -11 -6 0 -6 6
2 15 14 17 26 13 15 -4z m495 -5 c0 -3 -7 -12 -16 -20 -23 -23 -40 -19 -19 4
16 18 35 26 35 16z m3003 -3 c-7 -2 -21 -2 -30 0 -10 3 -4 5 12 5 17 0 24 -2
18 -5z m-3673 -18 c19 -23 8 -26 -20 -5 -19 15 -21 20 -9 20 9 0 22 -7 29 -15z
m227 -1 c-30 -16 -44 -14 -32 5 3 6 18 11 33 11 l27 -1 -28 -15z m593 -30 c0
-28 -16 -64 -29 -64 -18 0 -20 32 -4 65 18 38 33 37 33 -1z m67 5 c7 -13 10
-36 7 -51 -4 -19 0 -30 16 -41 28 -20 15 -26 -35 -18 -38 6 -40 9 -38 40 4 96
23 123 50 70z m-622 2 c-3 -6 -11 -8 -17 -5 -6 4 -5 9 3 15 16 10 23 4 14 -10z
m-279 -6 c10 -8 14 -15 8 -15 -5 0 -19 7 -30 15 -10 8 -14 15 -8 15 5 0 19 -7
30 -15z m514 -25 c0 -4 -20 -3 -45 3 -35 8 -42 13 -34 23 9 10 17 10 45 -3 19
-9 34 -20 34 -23z m-185 20 c-3 -5 -13 -10 -21 -10 -8 0 -12 5 -9 10 3 6 13
10 21 10 8 0 12 -4 9 -10z m25 -15 c-7 -9 -15 -13 -17 -11 -7 7 7 26 19 26 6
0 6 -6 -2 -15z m3335 -5 c10 -11 15 -20 11 -20 -10 0 -66 30 -66 35 0 13 39 2
55 -15z m-3875 2 c0 -11 -103 -82 -118 -82 -14 0 -14 6 -6 48 6 29 10 31 53
35 25 2 52 4 59 5 6 1 12 -2 12 -6z m223 -5 c38 1 45 -12 16 -30 -9 -6 -28 0
-59 18 -25 15 -34 23 -20 19 14 -4 42 -7 63 -7z m372 -7 c-3 -5 -13 -10 -21
-10 -8 0 -12 5 -9 10 3 6 13 10 21 10 8 0 12 -4 9 -10z m215 -5 c10 -12 10
-15 -3 -15 -23 0 -47 11 -47 21 0 15 37 10 50 -6z m720 3 c-1 -7 -5 -32 -9
-55 -9 -47 -5 -59 15 -42 7 6 19 9 26 7 8 -3 1 -11 -17 -20 -29 -16 -30 -16
-66 20 -20 21 -44 43 -53 51 -22 17 -18 20 41 36 62 17 63 17 63 3z m2235 -8
c-20 -22 -31 -20 -22 5 4 8 14 15 23 15 16 0 16 -2 -1 -20z m-3707 -27 c-3
-37 -5 -38 -43 -41 -38 -2 -81 15 -60 24 6 2 28 15 50 29 22 13 44 25 48 25 5
0 7 -17 5 -37z m587 28 c3 -5 -4 -13 -16 -16 -23 -8 -34 -1 -24 14 8 13 32 14
40 2z m1142 -13 c-3 -8 -6 -5 -6 6 -1 11 2 17 5 13 3 -3 4 -12 1 -19z m-1586
-18 c13 -10 20 -19 16 -20 -11 0 -67 29 -67 35 0 12 30 3 51 -15z m167 8 c13
-13 16 -28 5 -28 -5 0 -19 9 -33 20 -23 18 -24 20 -4 20 11 0 25 -5 32 -12z
m312 3 c0 -5 -7 -11 -15 -15 -15 -5 -20 5 -8 17 9 10 23 9 23 -2z m2007 -44
l13 -42 -4 43 c-3 27 0 40 6 36 6 -4 8 -27 4 -57 -7 -64 5 -83 39 -61 23 15
45 12 45 -5 0 -4 -18 -16 -40 -26 -35 -16 -43 -16 -54 -4 -11 12 -36 122 -36
159 0 23 15 0 27 -43z m1109 -11 c-4 -17 -34 -36 -112 -75 -59 -28 -108 -50
-109 -49 -8 10 -26 50 -23 52 2 1 21 8 43 14 23 6 77 37 120 67 73 51 80 54
83 34 2 -11 1 -31 -2 -43z m81 47 c3 -7 -3 -9 -17 -6 -29 8 -37 25 -9 21 12
-1 24 -8 26 -15z m-3117 -8 c0 -8 -7 -15 -16 -15 -14 0 -14 3 -4 15 7 8 14 15
16 15 2 0 4 -7 4 -15z m474 9 c31 -12 15 -21 -38 -20 -42 1 -52 4 -44 14 11
13 55 16 82 6z m-633 -25 c40 -20 280 -70 404 -84 33 -4 107 -18 165 -31 58
-13 143 -30 189 -38 45 -8 88 -19 93 -24 11 -11 -18 -341 -31 -355 -19 -19
-29 26 -32 138 -3 98 -8 126 -24 155 -48 83 -189 108 -316 57 -36 -15 -68 -27
-71 -27 -4 0 -16 15 -27 33 -11 19 -44 47 -73 63 -48 26 -62 29 -145 29 -77 0
-96 -3 -119 -21 -49 -36 -64 -66 -74 -148 -9 -74 -22 -106 -41 -106 -9 0 -4
36 27 194 13 65 24 134 24 152 0 19 2 34 5 34 3 0 24 -9 46 -21z m2036 -26
c-3 -10 -5 -2 -5 17 0 19 2 27 5 18 2 -10 2 -26 0 -35z m-2440 10 c2 -5 -8
-20 -22 -33 l-25 -23 0 41 c0 38 2 41 22 33 12 -4 23 -12 25 -18z m628 17 c-3
-5 -15 -10 -26 -10 -11 0 -17 5 -14 10 3 6 15 10 26 10 11 0 17 -4 14 -10z
m1595 -26 c0 -6 -11 -16 -25 -22 -21 -10 -25 -9 -25 5 0 9 8 25 17 35 13 14
18 16 25 6 4 -7 8 -18 8 -24z m199 -28 c1 -15 -2 -16 -14 -6 -16 13 -20 51 -8
64 8 8 20 -25 22 -58z m-2249 4 c0 -15 -33 -12 -58 6 -12 8 -22 22 -22 30 0
12 8 11 40 -6 22 -11 40 -25 40 -30z m505 40 c-3 -5 -13 -10 -21 -10 -8 0 -12
5 -9 10 3 6 13 10 21 10 8 0 12 -4 9 -10z m47 -12 c-6 -6 -15 -8 -19 -4 -4 4
-1 11 7 16 19 12 27 3 12 -12z m493 -9 c52 -29 76 -49 58 -49 -19 0 -186 29
-190 33 -4 5 57 47 70 47 4 0 32 -14 62 -31z m-403 -11 c-6 -6 -15 -8 -19 -4
-4 4 -1 11 7 16 19 12 27 3 12 -12z m58 3 c0 -5 -7 -11 -15 -15 -15 -5 -20 5
-8 17 9 10 23 9 23 -2z m32 -23 c-7 -7 -12 -8 -12 -2 0 6 3 14 7 17 3 4 9 5
12 2 2 -3 -1 -11 -7 -17z m2771 10 c10 -8 13 -18 9 -26 -6 -9 -14 -6 -32 13
-17 18 -19 25 -9 25 9 0 23 -6 32 -12z m-2718 -8 c-3 -5 -13 -10 -21 -10 -8 0
-12 5 -9 10 3 6 13 10 21 10 8 0 12 -4 9 -10z m45 -15 c-7 -8 -17 -12 -22 -9
-5 3 -1 12 9 19 22 17 30 11 13 -10z m1878 3 c-2 -12 -8 -23 -14 -25 -7 -2
-10 6 -7 22 6 30 26 34 21 3z m330 16 c12 -4 22 -10 22 -15 0 -15 -37 -10 -50
6 -13 16 -8 18 28 9z m-3188 -8 c0 -2 -7 -6 -15 -10 -8 -3 -15 -1 -15 4 0 6 7
10 15 10 8 0 15 -2 15 -4z m1070 -15 c0 -12 -20 -25 -27 -18 -7 7 6 27 18 27
5 0 9 -4 9 -9z m40 -15 c0 -17 -14 -29 -23 -20 -8 8 3 34 14 34 5 0 9 -6 9
-14z m46 -11 c-3 -9 -11 -13 -16 -10 -8 5 -7 11 1 21 14 18 24 11 15 -11z
m2154 -27 c0 -5 -7 -8 -15 -8 -8 0 -15 3 -15 8 0 4 -3 18 -6 32 l-6 25 21 -25
c11 -14 21 -28 21 -32z m270 -87 c0 -145 -4 -171 -25 -171 -8 0 -14 28 -18 91
-6 94 -23 139 -54 139 -8 0 -33 -16 -54 -35 -45 -40 -54 -42 -69 -16 -8 16 -5
23 21 42 28 19 173 87 192 88 4 1 7 -62 7 -138z m-2385 110 c-3 -6 -11 -11
-17 -11 -6 0 -6 6 2 15 14 17 26 13 15 -4z m845 9 c0 -14 -40 -32 -57 -26 -12
5 -13 9 -3 21 14 17 60 21 60 5z m138 -10 c39 -7 72 -17 72 -22 0 -4 -40 -8
-90 -8 -81 0 -90 2 -90 18 0 22 10 34 24 29 6 -3 44 -10 84 -17z m1491 -26 c3
-17 2 -17 -20 -2 -13 8 -26 24 -28 34 -3 17 -2 17 20 2 13 -8 26 -24 28 -34z
m-3579 30 c0 -19 -77 -95 -107 -105 -31 -10 -183 -5 -183 7 0 2 17 19 37 38
30 28 42 32 60 25 19 -7 26 -4 39 16 15 23 23 25 85 25 38 0 69 -3 69 -6z m96
-31 c-3 -21 -6 -48 -6 -60 0 -22 -4 -23 -70 -23 -38 0 -70 3 -70 7 0 4 23 31
52 60 35 35 61 53 76 53 23 0 24 -3 18 -37z m374 27 c13 -8 13 -10 -2 -10 -9
0 -20 5 -23 10 -8 13 5 13 25 0z m1831 -10 l24 -19 -52 -1 c-54 0 -67 11 -35
29 25 15 37 13 63 -9z m-1077 -5 c-6 -16 -24 -21 -24 -7 0 11 11 22 21 22 5 0
6 -7 3 -15z m-790 -1 c22 -8 20 -27 -4 -49 -19 -17 -33 -17 -92 1 -10 3 -18 1
-18 -4 0 -5 20 -15 45 -21 64 -16 56 -23 -17 -15 -77 8 -81 10 -67 36 9 17 19
19 60 16 27 -1 49 0 49 5 0 4 7 7 16 7 14 0 14 3 4 15 -13 16 -3 20 24 9z
m831 -4 c-3 -5 -11 -10 -16 -10 -6 0 -7 5 -4 10 3 6 11 10 16 10 6 0 7 -4 4
-10z m37 -12 c-6 -6 -15 -8 -19 -4 -4 4 -1 11 7 16 19 12 27 3 12 -12z m39
-11 c-16 -16 -26 0 -10 19 9 11 15 12 17 4 2 -6 -1 -17 -7 -23z m1163 -2 c-19
-29 -29 -27 -19 4 3 12 13 21 21 21 12 0 12 -4 -2 -25z m482 1 c12 -19 13 -29
5 -43 -6 -10 -11 -16 -12 -13 0 3 -2 14 -4 25 -1 11 -6 28 -10 38 -11 25 2 21
21 -7z m-1596 5 c0 -6 -4 -13 -10 -16 -5 -3 -10 1 -10 9 0 9 5 16 10 16 6 0
10 -4 10 -9z m81 -24 c-16 -16 -26 0 -10 19 9 11 15 12 17 4 2 -6 -1 -17 -7
-23z m1093 27 c25 -9 19 -24 -9 -24 -16 0 -25 6 -25 15 0 16 9 19 34 9z m191
-26 c-10 -52 -53 -84 -137 -102 -140 -32 -208 -56 -222 -79 -8 -12 -21 -66
-30 -119 -9 -54 -21 -109 -26 -123 -11 -28 -36 -43 -50 -29 -8 8 20 307 35
370 6 25 31 34 103 34 70 0 193 26 262 55 73 30 73 30 65 -7z m-1235 13 c0
-12 -20 -25 -27 -18 -7 7 6 27 18 27 5 0 9 -4 9 -9z m54 0 c3 -5 -1 -12 -10
-15 -20 -8 -29 -1 -19 13 8 13 22 14 29 2z m41 -17 c-23 -17 -32 -10 -15 11 7
8 17 12 23 8 6 -4 3 -11 -8 -19z m845 17 c0 -15 -24 -28 -58 -33 -21 -3 -31
-1 -29 6 2 6 13 10 25 9 11 -1 26 4 32 12 14 17 30 20 30 6z m-1862 -25 l33
-17 -21 -29 c-23 -32 -36 -36 -60 -19 -12 8 -12 12 -2 16 10 4 5 15 -18 38
l-33 34 34 -3 c19 -2 49 -11 67 -20z m1057 5 c-3 -6 -11 -11 -17 -11 -6 0 -6
6 2 15 14 17 26 13 15 -4z m42 2 c-9 -9 -19 -14 -23 -11 -10 10 6 28 24 28 15
0 15 -1 -1 -17z m48 -3 c-20 -22 -31 -20 -22 5 4 8 14 15 23 15 16 0 16 -2 -1
-20z m87 8 c15 15 28 15 28 2 0 -16 -34 -28 -63 -23 -22 4 -25 8 -16 19 9 11
15 12 26 3 10 -9 17 -9 25 -1z m82 -3 c-4 -8 -16 -15 -27 -15 -20 0 -20 0 -1
15 25 19 35 19 28 0z m38 -17 c-18 -19 -22 -20 -22 -6 0 9 8 21 17 27 27 15
29 3 5 -21z m58 12 c-6 -11 -18 -20 -28 -20 -14 1 -13 4 7 20 29 25 34 25 21
0z m-1481 -34 c8 -9 11 -16 8 -16 -13 0 -77 43 -77 51 0 12 52 -15 69 -35z
m841 19 c227 -25 414 -35 678 -35 l253 0 -6 -42 c-10 -77 -35 -303 -35 -322 0
-15 -3 -16 -15 -6 -11 9 -15 35 -15 102 0 94 -8 121 -40 138 -33 18 -213 30
-291 21 -63 -8 -76 -14 -109 -46 -36 -35 -38 -36 -45 -16 -8 26 -80 86 -128
106 -77 32 -316 8 -365 -37 -34 -32 -75 -106 -68 -123 4 -11 31 -15 123 -17
l118 -3 3 -74 3 -73 -33 5 c-18 3 -55 9 -81 13 -38 5 -47 10 -43 23 3 9 1 23
-4 31 -7 12 -11 9 -20 -16 -8 -24 -19 -33 -41 -38 -30 -6 -32 -26 -3 -26 17 0
18 -22 0 -80 l-13 -45 -67 -3 c-65 -3 -66 -3 -66 23 0 33 20 116 32 131 5 7
29 17 53 23 34 9 45 16 45 31 0 23 -10 26 -28 8 -6 -6 -15 -9 -18 -5 -4 3 2
90 11 192 l18 187 31 -6 c17 -3 92 -12 166 -21z m692 9 c-24 -17 -39 -14 -27
5 3 6 16 11 28 11 l21 0 -22 -16z m58 7 c0 -5 -7 -11 -15 -15 -15 -5 -20 5 -8
17 9 10 23 9 23 -2z m110 0 c0 -5 -7 -11 -15 -15 -15 -5 -20 5 -8 17 9 10 23
9 23 -2z m-1380 -32 c0 -11 -7 -11 -49 -3 -45 9 -38 20 9 16 22 -2 40 -8 40
-13z m148 -15 c2 -11 -5 -27 -14 -35 -16 -12 -17 -12 -12 3 4 10 1 19 -8 22
-8 3 -14 13 -14 21 0 25 44 15 48 -11z m-487 -22 c-7 -2 -23 6 -35 18 l-21 22
35 -18 c21 -10 30 -19 21 -22z m-731 7 c47 -6 132 -14 190 -17 l105 -7 3 -29
c3 -22 -5 -37 -34 -67 l-38 -39 -104 0 -103 0 23 31 c41 55 42 58 34 66 -4 4
-27 -13 -49 -40 l-42 -47 -88 0 c-102 0 -131 10 -121 43 3 12 18 35 33 51 l26
29 -28 -7 c-30 -7 -44 10 -33 40 7 18 35 17 226 -7z m1040 0 c27 -15 -42 -9
-75 6 l-30 15 45 -6 c25 -4 52 -10 60 -15z m-508 -1 c-17 -8 -26 -8 -34 0 -9
9 -4 12 23 11 32 0 33 -1 11 -11z m128 2 c0 -5 -4 -10 -10 -10 -5 0 -10 5 -10
10 0 6 5 10 10 10 6 0 10 -4 10 -10z m480 -10 c14 -11 21 -20 17 -20 -11 0
-67 29 -67 35 0 11 27 3 50 -15z m-170 -8 c0 -5 -13 -7 -30 -4 -16 2 -30 6
-30 8 0 2 14 4 30 4 17 0 30 -4 30 -8z m-467 -34 c-24 -23 -40 -20 -30 7 4 8
17 15 29 15 l22 0 -21 -22z m43 -26 c-57 -82 -56 -82 -167 -82 l-100 0 23 30
c26 35 29 36 52 11 23 -25 61 -34 87 -21 11 6 42 34 70 62 55 58 75 58 35 0z
m2945 -25 c-6 -6 -11 -24 -11 -39 0 -39 -20 -44 -72 -17 l-43 23 45 10 c39 10
48 17 65 55 l20 43 3 -32 c2 -18 -1 -37 -7 -43z m-2734 55 c17 -11 -50 -118
-78 -127 -21 -7 -159 3 -159 11 0 3 21 32 48 64 l47 60 65 0 c36 0 71 -4 77
-8z m2161 -10 c2 -7 -5 -12 -15 -13 -16 0 -16 -1 2 -9 11 -5 33 -11 48 -15 31
-6 52 -46 42 -82 -4 -19 -12 -23 -43 -23 -58 1 -113 17 -136 40 l-21 21 45 -6
45 -5 -57 21 c-32 11 -58 25 -58 31 0 5 8 7 18 4 42 -13 115 -26 119 -22 3 3
-24 14 -58 24 -60 19 -62 20 -26 21 20 1 37 5 37 10 0 10 28 20 44 17 6 -1 12
-8 14 -14z m877 -7 c14 -75 14 -85 -1 -85 -42 0 -73 47 -59 91 9 26 54 22 60
-6z m-2775 6 c0 -12 -38 -80 -58 -103 -13 -15 -33 -18 -124 -18 -59 0 -108 3
-108 6 0 9 60 86 83 107 15 14 38 17 113 17 52 0 94 -4 94 -9z m2408 -28 c-15
-18 -21 -9 -13 18 6 16 9 18 16 8 4 -8 3 -19 -3 -26z m-2236 22 c3 -4 -2 -32
-11 -63 -21 -69 -40 -79 -130 -66 l-61 9 36 63 35 62 63 0 c34 0 65 -2 68 -5z
m76 -50 c5 -78 -3 -95 -43 -95 -40 0 -39 -2 -21 68 26 95 59 109 64 27z m478
27 c-4 -3 -14 2 -24 12 -16 18 -16 18 6 6 13 -6 21 -14 18 -18z m54 18 c8 -5
12 -12 9 -15 -8 -8 -39 5 -39 16 0 11 11 11 30 -1z m1235 -11 c5 -6 3 -9 -5
-9 -27 0 -60 12 -60 21 0 11 50 1 65 -12z m-1399 -26 c-7 -7 -46 16 -46 28 0
5 11 2 25 -7 14 -9 24 -19 21 -21z m84 12 c13 -16 8 -18 -27 -9 -13 4 -23 10
-23 15 0 15 37 10 50 -6z m1360 -56 c0 -24 -4 -38 -10 -34 -17 10 -11 75 7 75
2 0 3 -18 3 -41z m266 0 l49 -34 -120 -6 c-100 -5 -123 -4 -137 9 -18 15 -24
52 -10 66 4 5 44 6 88 3 73 -4 88 -9 130 -38z m304 1 c0 -27 -15 -48 -26 -37
-3 3 -2 21 1 41 8 41 25 39 25 -4z m-1917 14 c37 -19 67 -44 67 -56 0 -16 -48
-8 -71 13 -17 15 -19 19 -6 15 29 -9 19 2 -20 23 -24 13 -31 20 -20 21 10 0
32 -7 50 -16z m426 7 c9 -6 0 -10 -28 -13 -36 -3 -40 -2 -25 9 21 15 34 16 53
4z m596 -1 c8 -13 -15 -13 -35 0 -12 8 -11 10 7 10 12 0 25 -4 28 -10z m-1128
-56 c-6 -7 -97 38 -97 48 0 5 23 -3 51 -18 28 -14 49 -27 46 -30z m772 47 c7
-5 12 -14 9 -21 -2 -8 -11 -5 -28 9 -17 14 -20 20 -10 21 8 0 21 -4 29 -9z
m638 -28 c-3 -10 -5 -4 -5 12 0 17 2 24 5 18 2 -7 2 -21 0 -30z m-302 8 c51
-25 25 -25 -40 -1 -37 13 -43 19 -25 19 14 0 43 -8 65 -18z m-605 -16 c30 -10
49 -20 43 -22 -17 -6 -111 26 -120 39 -4 7 -1 9 8 6 8 -3 39 -13 69 -23z m156
0 c10 -8 14 -15 8 -15 -5 0 -19 7 -30 15 -10 8 -14 15 -8 15 5 0 19 -7 30 -15z
m93 -4 c22 -17 22 -18 5 -25 -12 -5 -23 -1 -31 10 -26 36 -12 44 26 15z m-814
-3 c44 -20 28 -28 -55 -28 -66 0 -80 3 -80 16 0 13 7 15 39 9 24 -4 42 -2 46
4 8 14 18 14 50 -1z m505 -4 l25 -14 -29 2 c-16 2 -31 9 -34 16 -5 16 7 15 38
-4z m-370 -4 c0 -5 -7 -10 -15 -10 -8 0 -15 5 -15 10 0 6 7 10 15 10 8 0 15
-4 15 -10z m1040 0 c12 -8 10 -10 -10 -10 -14 0 -32 5 -40 10 -12 8 -10 10 10
10 14 0 32 -5 40 -10z m-2332 -8 l44 -7 -32 -45 c-55 -77 -60 -80 -171 -80
-54 0 -100 4 -103 8 -2 4 22 36 54 70 59 61 60 62 112 61 29 0 72 -4 96 -7z
m270 -16 c2 -3 -13 -31 -34 -63 l-39 -58 -83 -3 c-45 -2 -89 1 -98 6 -13 7
-12 13 10 39 14 17 26 36 26 41 0 6 12 20 28 32 24 20 35 22 106 16 43 -3 81
-8 84 -10z m2022 -81 l61 -75 -81 0 -81 0 5 33 c3 17 8 53 11 80 4 26 10 45
15 42 5 -3 37 -39 70 -80z m-1770 69 c0 -4 -13 -30 -30 -59 -28 -49 -33 -53
-76 -59 -26 -3 -75 -6 -110 -6 -76 0 -80 10 -34 83 l30 47 110 0 c60 0 110 -3
110 -6z m208 -9 c7 -6 -22 -91 -36 -107 -12 -15 -32 -18 -104 -18 -98 0 -102
4 -72 63 35 68 47 74 132 69 42 -2 78 -6 80 -7z m1776 -52 l74 -68 -86 -3
c-48 -2 -97 0 -108 2 -21 6 -104 106 -104 126 0 6 30 10 75 10 l74 0 75 -67z
m198 53 c36 -4 168 -87 168 -107 0 -5 -56 -9 -124 -9 l-125 0 -58 48 c-99 82
-99 82 9 76 51 -3 110 -6 130 -8z m404 -11 c62 -32 144 -92 144 -106 0 -6 -7
-8 -16 -5 -9 3 -78 6 -154 7 -136 0 -139 1 -182 29 -24 16 -61 45 -83 64 l-40
35 141 1 c130 0 144 -2 190 -25z m-1705 -1 c7 -9 16 -38 19 -65 6 -48 6 -49
-25 -55 -17 -3 -49 -4 -70 -2 -38 3 -40 4 -47 48 -4 25 -10 55 -13 68 -5 21
-3 22 59 22 46 0 67 -4 77 -16z m196 8 c6 -4 18 -35 26 -70 l14 -63 -85 3
c-95 3 -89 -2 -106 90 -6 34 -5 37 21 41 49 7 118 7 130 -1z m180 -2 c26 -10
45 -36 81 -113 2 -4 -38 -6 -89 -5 -104 3 -109 7 -124 91 l-7 37 54 0 c30 0
68 -5 85 -10z m-930 -12 c17 -21 33 -78 27 -93 -5 -11 -24 -15 -75 -15 -38 0
-69 3 -69 8 0 17 23 88 32 100 6 6 25 12 43 12 18 0 37 -6 42 -12z m1163 -48
l0 -60 -54 0 -53 0 -32 60 -32 60 85 0 86 0 0 -60z m-2110 -71 c0 -12 -71
-103 -103 -131 -16 -15 -39 -18 -140 -18 l-122 0 80 80 80 80 102 0 c69 0 103
-4 103 -11z m261 -18 c-14 -26 -1 -34 22 -14 15 15 42 19 138 21 83 3 119 0
119 -7 0 -17 -46 -106 -62 -118 -7 -6 -65 -13 -131 -15 l-119 -3 4 33 c5 40
-8 41 -30 3 -22 -38 -34 -41 -158 -34 l-104 6 26 36 c15 20 43 53 63 74 l35
37 103 0 c98 0 103 -1 94 -19z m695 -14 c10 -10 -26 -105 -42 -111 -9 -3 -47
-6 -86 -6 -63 0 -69 2 -63 18 4 9 9 28 12 42 3 23 3 24 -9 6 -43 -63 -47 -65
-150 -68 -53 -1 -98 -1 -101 2 -2 3 9 34 25 69 l29 64 190 -5 c104 -2 192 -7
195 -11z m371 -4 c8 -3 12 -12 9 -20 -3 -8 -6 -30 -6 -49 l0 -34 -96 0 -96 0
7 36 c16 86 17 87 96 80 39 -4 78 -10 86 -13z m1776 -29 c37 -25 67 -50 67
-55 0 -4 -64 -5 -142 -2 l-143 6 -52 41 c-29 22 -52 44 -53 49 0 4 57 7 128 7
l127 0 68 -46z m352 6 c53 -51 35 -62 -102 -63 -101 -1 -112 1 -153 25 -25 15
-58 39 -75 53 l-30 25 162 -2 162 -3 36 -35z m30 30 c3 -5 2 -10 -4 -10 -5 0
-13 5 -16 10 -3 6 -2 10 4 10 5 0 13 -4 16 -10z m-1949 -8 c6 -4 21 -28 32
-54 l21 -48 -105 0 -104 0 0 43 c0 24 5 48 12 55 13 13 126 16 144 4z m225
-22 c10 -14 21 -38 25 -53 l6 -28 -87 3 -88 3 -18 53 -18 53 81 -3 c73 -3 83
-5 99 -28z m259 -17 l42 -48 -53 -7 c-30 -3 -77 -6 -106 -7 -46 -1 -54 2 -77
30 -14 17 -26 34 -26 39 0 5 -3 15 -6 24 -5 14 6 16 89 16 l95 0 42 -47z m137
31 c32 -16 37 -16 69 -1 l34 17 26 -41 c45 -72 47 -69 -61 -69 -53 0 -104 4
-113 9 -10 5 -32 30 -50 55 l-33 46 46 0 c26 0 63 -7 82 -16z m629 -26 c56
-52 50 -56 -87 -57 l-96 -1 -42 50 -42 50 111 0 110 0 46 -42z m-260 -15 l43
-48 -97 -3 -97 -3 -32 38 c-50 58 -46 63 53 63 l86 0 44 -47z"/>
<path d="M2702 3838 c6 -18 28 -21 28 -4 0 9 -7 16 -16 16 -9 0 -14 -5 -12
-12z"/>
<path d="M2627 3814 c-10 -11 3 -24 22 -24 10 0 24 7 31 15 11 13 8 15 -17 15
-16 0 -33 -3 -36 -6z"/>
<path d="M3440 3800 c0 -5 4 -10 9 -10 6 0 13 5 16 10 3 6 -1 10 -9 10 -9 0
-16 -4 -16 -10z"/>
<path d="M2842 3488 c28 -50 48 -60 48 -25 0 16 -10 34 -26 46 -41 32 -48 25
-22 -21z"/>
<path d="M1134 3355 c-19 -15 -19 -15 4 -34 12 -11 22 -26 22 -35 0 -20 14
-21 29 -2 13 16 2 55 -21 74 -12 9 -19 8 -34 -3z"/>
<path d="M1130 3190 c0 -5 9 -10 19 -10 11 0 23 5 26 10 4 6 -5 10 -19 10 -14
0 -26 -4 -26 -10z"/>
<path d="M1607 3068 c-4 -18 -9 -47 -12 -64 -5 -22 0 -44 15 -74 15 -30 20
-54 17 -77 -3 -18 -2 -33 3 -33 9 0 30 -54 30 -77 0 -10 -7 -12 -22 -8 -13 4
-30 8 -38 11 -8 2 -21 -5 -27 -15 -11 -17 -7 -22 33 -46 48 -28 168 -51 212
-40 28 7 28 32 0 62 l-22 23 22 39 c28 50 28 79 -3 121 -31 41 -32 79 -4 114
39 50 -1 79 -122 90 l-77 7 -5 -33z m148 -8 c40 -15 20 -30 -38 -30 l-52 1 24
19 c27 23 30 24 66 10z m-102 -51 c41 -22 49 -58 20 -99 l-17 -24 -17 40 c-17
38 -25 94 -13 94 3 0 15 -5 27 -11z m119 -11 c-19 -19 -14 -70 13 -113 30 -50
31 -68 3 -113 -20 -33 -21 -37 -5 -64 l16 -28 -48 0 c-26 0 -50 3 -54 6 -3 4
0 19 8 34 18 34 10 71 -13 62 -15 -5 -15 -4 -2 13 16 19 16 21 20 130 1 39 5
73 7 78 2 4 18 7 36 7 24 0 28 -3 19 -12z m-82 -163 c0 -14 -4 -25 -10 -25 -5
0 -10 11 -10 25 0 14 5 25 10 25 6 0 10 -11 10 -25z"/>
<path d="M2189 3070 c-69 -12 -118 -39 -172 -92 -46 -46 -48 -47 -97 -41 -58
7 -64 -1 -17 -21 17 -8 26 -15 19 -15 -43 -3 -59 -78 -19 -89 19 -6 17 -7 -13
-13 l-35 -6 42 -8 c24 -4 51 -13 60 -21 15 -11 12 -11 -22 -4 -22 5 -51 9 -65
9 -23 0 -23 -1 -8 -13 12 -9 14 -16 7 -23 -8 -8 6 -15 47 -23 78 -16 86 -20
44 -19 -63 2 -80 -1 -80 -11 0 -6 27 -10 60 -10 32 0 82 -5 110 -11 45 -9 49
-13 38 -26 -12 -14 -13 -14 -16 -1 -2 12 -22 17 -90 20 -108 6 -129 -3 -42
-18 l65 -12 -57 -1 c-34 0 -58 -5 -58 -12 0 -7 66 -10 218 -7 l217 4 85 36
c73 30 90 42 116 81 38 55 49 119 34 192 -22 108 -93 156 -235 161 -49 2 -111
-1 -136 -6z m230 -30 c69 -19 121 -104 121 -194 0 -72 -104 -173 -201 -196
-124 -30 -266 14 -320 98 -32 51 -44 99 -35 137 8 32 70 101 108 121 27 14 28
14 28 -11 0 -17 -14 -39 -40 -64 -34 -33 -40 -44 -40 -80 0 -61 26 -97 90
-129 74 -36 192 -38 257 -4 79 41 126 151 89 207 -23 35 -74 65 -112 65 -17 0
-43 9 -57 20 -25 20 -67 27 -67 13 0 -5 -7 -16 -15 -27 -13 -18 -15 -18 -50 4
-20 12 -34 25 -31 27 21 21 216 30 275 13z m-155 -69 c-20 -22 -29 -5 -14 25
13 23 15 24 21 7 4 -10 1 -24 -7 -32z m-66 -21 c18 -24 28 -29 47 -24 22 5 25
3 25 -20 0 -32 14 -33 34 -4 13 18 18 19 31 8 20 -16 19 -39 -2 -62 -15 -17
-15 -18 5 -18 12 0 22 -4 22 -8 0 -10 -65 -42 -85 -42 -12 0 -136 70 -154 86
-10 9 24 34 45 34 29 0 29 0 3 44 -27 46 -3 50 29 6z m196 6 c32 -13 53 -33
44 -41 -2 -2 -35 5 -73 17 -56 16 -66 22 -50 29 29 11 42 11 79 -5z m-254 -25
c0 -10 -50 -45 -56 -39 -2 2 3 14 12 26 15 22 44 30 44 13z m286 -59 c-17 -17
-36 -8 -36 18 0 17 3 18 25 8 22 -10 24 -13 11 -26z m-240 -68 c36 -26 63 -49
60 -52 -3 -3 -41 18 -83 46 -43 29 -70 52 -60 52 10 0 48 -21 83 -46z m-42
-19 c32 -25 73 -47 90 -50 76 -12 76 -13 4 -12 -68 2 -82 6 -120 33 -24 17
-44 39 -46 52 -5 31 5 28 72 -23z m236 6 c0 -5 -13 -14 -30 -20 -35 -12 -41 1
-7 17 28 14 37 14 37 3z"/>
<path d="M3663 2849 c-73 -34 -86 -53 -81 -120 1 -27 -1 -51 -7 -53 -14 -5 52
-72 105 -106 25 -15 65 -31 90 -35 25 -3 75 -15 111 -27 76 -24 99 -20 99 17
0 31 -14 38 -180 86 -103 30 -112 34 -82 40 18 4 42 15 54 25 29 26 50 81 42
107 -9 29 -65 97 -78 96 -6 0 -39 -14 -73 -30z m89 -26 c23 -28 30 -55 16 -65
-35 -21 -138 5 -138 36 0 13 60 43 91 45 9 1 23 -7 31 -16z m8 -111 c0 -14
-23 -32 -42 -32 -18 0 -25 20 -11 33 9 10 53 9 53 -1z m15 -133 c47 -16 48
-18 18 -18 -37 -1 -113 26 -113 41 0 10 11 7 95 -23z m150 -39 l20 -9 -20 0
c-11 0 -27 4 -35 9 -13 9 -13 10 0 9 8 0 24 -4 35 -9z"/>
<path d="M2665 2636 c-47 -21 -68 -50 -68 -96 0 -57 21 -75 103 -89 91 -15
116 -14 179 5 62 18 91 44 91 82 0 70 -73 112 -195 111 -44 0 -93 -6 -110 -13z
m196 -26 c43 -12 67 -48 50 -76 -9 -17 -10 -15 -11 12 0 27 -5 32 -38 43 -53
18 -84 11 -100 -21 -12 -25 -18 -28 -63 -28 -54 0 -69 -19 -16 -21 17 -1 24
-3 15 -6 -10 -2 -18 -9 -18 -14 0 -16 -26 -10 -46 12 -17 19 -17 23 -3 47 30
55 135 78 230 52z m-21 -100 c0 -7 -19 -8 -52 -4 -71 9 -73 14 -5 14 33 0 57
-4 57 -10z m-70 -30 c0 -5 -9 -10 -21 -10 -11 0 -17 5 -14 10 3 6 13 10 21 10
8 0 14 -4 14 -10z"/>
<path d="M3101 2980 c-58 -46 -71 -66 -71 -112 0 -41 21 -73 61 -94 42 -21
190 -30 261 -15 78 17 104 40 119 105 10 45 9 58 -6 89 -26 54 -63 67 -198 67
l-115 0 -51 -40z m113 14 c15 -6 23 -34 10 -34 -13 0 -44 21 -44 30 0 11 11
13 34 4z m119 -31 c-7 -2 -21 -2 -30 0 -10 3 -4 5 12 5 17 0 24 -2 18 -5z
m-159 -12 c8 -13 -39 -41 -68 -41 -17 0 -24 4 -20 14 10 26 76 46 88 27z m99
-8 c-6 -14 0 -15 51 -10 49 5 59 3 76 -16 31 -32 24 -77 -7 -46 -7 7 -12 0
-17 -25 -5 -28 -12 -36 -29 -36 -17 0 -19 2 -7 10 30 18 1 20 -69 3 -79 -19
-93 -14 -106 37 -5 22 -1 29 33 48 22 12 45 29 52 37 17 20 31 19 23 -2z
m-153 -61 c0 -10 -37 -32 -43 -25 -11 10 6 33 24 33 10 0 19 -3 19 -8z m28
-49 c2 -15 -4 -23 -18 -28 -31 -10 -43 7 -24 33 19 27 38 24 42 -5z"/>
<path d="M4067 2813 c-12 -12 -7 -41 8 -47 12 -4 14 0 9 22 -8 33 -9 34 -17
25z"/>
<path d="M1415 2508 c-27 -15 -36 -31 -25 -42 6 -6 19 -1 35 14 38 36 32 52
-10 28z"/>
<path d="M1494 2485 c19 -29 20 -36 4 -32 -18 3 -22 -32 -4 -39 41 -16 66 65
27 86 -34 18 -45 12 -27 -15z"/>
<path d="M1453 2477 c-18 -39 -16 -55 3 -35 9 8 14 26 12 39 -3 23 -3 23 -15
-4z"/>
<path d="M2151 2304 c0 -11 3 -14 6 -6 3 7 2 16 -1 19 -3 4 -6 -2 -5 -13z"/>
<path d="M3507 2337 c-3 -7 -8 -39 -12 -70 -7 -54 -6 -57 14 -57 19 0 21 6 21
58 0 60 -12 97 -23 69z"/>
<path d="M3663 2023 c-7 -2 -13 -13 -13 -24 0 -10 -9 -28 -20 -39 -24 -24 -26
-40 -5 -40 18 0 20 -17 3 -22 -9 -3 -8 -19 5 -63 9 -32 12 -54 6 -48 -5 5 -20
52 -33 104 -25 100 -28 100 -46 1 -6 -35 -23 -90 -37 -123 -39 -91 -14 -116
61 -59 47 36 56 36 105 8 36 -21 71 -20 71 2 0 5 -16 16 -36 25 l-35 14 7 110
c6 105 2 162 -14 160 -4 0 -13 -3 -19 -6z m-60 -221 c3 7 6 3 6 -9 1 -12 -4
-25 -10 -28 -13 -8 -14 -7 -24 25 -7 22 -6 23 8 12 12 -10 16 -10 20 0z"/>
<path d="M1266 2284 c-15 -15 -23 -64 -10 -64 3 0 19 9 35 21 24 17 27 24 19
40 -13 23 -24 24 -44 3z"/>
<path d="M2312 1988 c-20 -49 -28 -234 -12 -253 7 -8 15 -15 19 -15 3 0 6 53
6 117 0 65 4 133 9 151 5 19 5 32 -1 32 -5 0 -14 -15 -21 -32z"/>
<path d="M555 3915 c-4 -41 -3 -89 1 -107 l8 -33 7 45 c11 64 11 170 0 170 -5
0 -12 -34 -16 -75z"/>
<path d="M567 3714 c-4 -4 -7 -14 -7 -23 0 -11 3 -12 11 -4 6 6 10 16 7 23 -2
6 -7 8 -11 4z"/>
<path d="M550 3556 c0 -8 5 -18 10 -21 6 -3 10 1 10 9 0 8 -4 18 -10 21 -5 3
-10 -1 -10 -9z"/>
<path d="M506 3168 c6 -326 8 -355 25 -374 23 -25 24 -42 2 -66 -23 -25 -26
-169 -7 -257 10 -44 11 -68 4 -75 -11 -11 -12 -137 -1 -176 7 -24 8 -24 18 -5
16 29 20 371 10 939 -7 357 -8 365 -45 366 -10 0 -11 -71 -6 -352z"/>
</g>
</svg>
